<svg width="46" height="26" viewBox="0 0 46 26" fill="none" xmlns="http://www.w3.org/2000/svg">
<path d="M3.41072 5.5734H1.07637V4.63126H3.41072C3.86279 4.63126 4.22884 4.55924 4.50888 4.41522C4.78893 4.2712 4.99296 4.07117 5.12098 3.81513C5.253 3.55909 5.31901 3.26705 5.31901 2.939C5.31901 2.63895 5.253 2.35691 5.12098 2.09287C4.99296 1.82883 4.78893 1.6168 4.50888 1.45678C4.22884 1.29275 3.86279 1.21074 3.41072 1.21074H1.34641V8.99991H0.188232V0.262596H3.41072C4.07082 0.262596 4.6289 0.376613 5.08497 0.604648C5.54104 0.832682 5.88709 1.14873 6.12313 1.55279C6.35916 1.95285 6.47718 2.41092 6.47718 2.927C6.47718 3.48708 6.35916 3.96515 6.12313 4.36121C5.88709 4.75727 5.54104 5.05932 5.08497 5.26735C4.6289 5.47138 4.07082 5.5734 3.41072 5.5734Z" fill="white"/>
<path d="M10.3838 9.11993C9.9317 9.11993 9.52164 9.04392 9.15359 8.8919C8.78953 8.73587 8.47548 8.51784 8.21144 8.2378C7.9514 7.95776 7.75137 7.62571 7.61135 7.24165C7.47133 6.85759 7.40132 6.43753 7.40132 5.98146V5.72942C7.40132 5.20134 7.47933 4.73127 7.63536 4.31921C7.79138 3.90315 8.00341 3.55109 8.27145 3.26305C8.53949 2.97501 8.84354 2.75697 9.18359 2.60895C9.52364 2.46093 9.87569 2.38692 10.2397 2.38692C10.7038 2.38692 11.1039 2.46693 11.4399 2.62695C11.78 2.78698 12.058 3.01101 12.2741 3.29905C12.4901 3.5831 12.6501 3.91915 12.7541 4.30721C12.8581 4.69126 12.9102 5.11133 12.9102 5.5674V6.06547H8.06142V5.15934H11.8V5.07532C11.784 4.78728 11.724 4.50724 11.62 4.2352C11.5199 3.96315 11.3599 3.73912 11.1399 3.56309C10.9199 3.38707 10.6198 3.29905 10.2397 3.29905C9.98771 3.29905 9.75568 3.35306 9.54364 3.46108C9.33161 3.56509 9.14958 3.72112 8.99756 3.92915C8.84554 4.13718 8.72752 4.39122 8.64351 4.69126C8.5595 4.99131 8.51749 5.33736 8.51749 5.72942V5.98146C8.51749 6.28951 8.5595 6.57955 8.64351 6.85159C8.73152 7.11963 8.85754 7.35567 9.02156 7.5597C9.18959 7.76373 9.39162 7.92375 9.62766 8.03977C9.86769 8.15579 10.1397 8.2138 10.4438 8.2138C10.8358 8.2138 11.1679 8.13378 11.4399 7.97376C11.712 7.81374 11.95 7.5997 12.154 7.33166L12.8261 7.86574C12.6861 8.07777 12.5081 8.27981 12.2921 8.47183C12.076 8.66386 11.81 8.81989 11.4939 8.93991C11.1819 9.05992 10.8118 9.11993 10.3838 9.11993Z" fill="white"/>
<path d="M16.9248 2.50693V3.35906H13.4142V2.50693H16.9248ZM14.6024 0.928697H15.7126V7.39167C15.7126 7.6117 15.7466 7.77773 15.8146 7.88975C15.8826 8.00176 15.9706 8.07577 16.0786 8.11178C16.1866 8.14779 16.3027 8.16579 16.4267 8.16579C16.5187 8.16579 16.6147 8.15779 16.7147 8.14178C16.8187 8.12178 16.8968 8.10578 16.9488 8.09378L16.9548 8.99991C16.8667 9.02792 16.7507 9.05392 16.6067 9.07793C16.4667 9.10593 16.2967 9.11993 16.0966 9.11993C15.8246 9.11993 15.5746 9.06592 15.3465 8.95791C15.1185 8.84989 14.9365 8.66986 14.8004 8.41783C14.6684 8.16179 14.6024 7.81774 14.6024 7.38567V0.928697Z" fill="white"/>
<path d="M23.0517 6.79158C23.0517 6.58755 23.0197 6.40752 22.9557 6.2515C22.8957 6.09148 22.7876 5.94745 22.6316 5.81943C22.4796 5.69141 22.2676 5.5694 21.9955 5.45338C21.7275 5.33736 21.3874 5.21934 20.9754 5.09933C20.5433 4.97131 20.1532 4.82929 19.8052 4.67326C19.4571 4.51324 19.1591 4.33121 18.9111 4.12718C18.663 3.92315 18.473 3.68911 18.341 3.42507C18.209 3.16103 18.1429 2.85899 18.1429 2.51894C18.1429 2.17889 18.213 1.86484 18.353 1.57679C18.493 1.28875 18.693 1.03871 18.9531 0.826681C19.2171 0.610649 19.5312 0.442623 19.8952 0.322605C20.2593 0.202587 20.6653 0.142578 21.1134 0.142578C21.7695 0.142578 22.3256 0.268597 22.7816 0.520635C23.2417 0.768673 23.5918 1.09472 23.8318 1.49878C24.0718 1.89884 24.1919 2.32691 24.1919 2.78298H23.0397C23.0397 2.45493 22.9697 2.16488 22.8296 1.91285C22.6896 1.65681 22.4776 1.45678 22.1936 1.31275C21.9095 1.16473 21.5495 1.09072 21.1134 1.09072C20.7013 1.09072 20.3613 1.15273 20.0932 1.27675C19.8252 1.40077 19.6252 1.56879 19.4931 1.78083C19.3651 1.99286 19.3011 2.23489 19.3011 2.50693C19.3011 2.69096 19.3391 2.85899 19.4151 3.01101C19.4951 3.15903 19.6172 3.29705 19.7812 3.42507C19.9492 3.55309 20.1612 3.67111 20.4173 3.77913C20.6773 3.88714 20.9874 3.99116 21.3474 4.09117C21.8435 4.2312 22.2716 4.38722 22.6316 4.55924C22.9917 4.73127 23.2877 4.9253 23.5198 5.14133C23.7558 5.35336 23.9298 5.5954 24.0418 5.86744C24.1578 6.13548 24.2159 6.43953 24.2159 6.77958C24.2159 7.13563 24.1438 7.45768 23.9998 7.74572C23.8558 8.03377 23.6498 8.27981 23.3817 8.48384C23.1137 8.68787 22.7916 8.84589 22.4156 8.95791C22.0435 9.06592 21.6275 9.11993 21.1674 9.11993C20.7633 9.11993 20.3653 9.06392 19.9732 8.95191C19.5852 8.83989 19.2311 8.67186 18.9111 8.44783C18.595 8.2238 18.341 7.94776 18.1489 7.61971C17.9609 7.28766 17.8669 6.9036 17.8669 6.46753H19.0191C19.0191 6.76758 19.0771 7.02562 19.1931 7.24165C19.3091 7.45368 19.4671 7.62971 19.6672 7.76973C19.8712 7.90975 20.1012 8.01377 20.3573 8.08178C20.6173 8.14579 20.8874 8.17779 21.1674 8.17779C21.5715 8.17779 21.9135 8.12178 22.1936 8.00976C22.4736 7.89775 22.6856 7.73772 22.8296 7.52969C22.9777 7.32166 23.0517 7.07562 23.0517 6.79158Z" fill="white"/>
<path d="M28.2425 2.50693V3.35906H24.7319V2.50693H28.2425ZM25.9201 0.928697H27.0303V7.39167C27.0303 7.6117 27.0643 7.77773 27.1323 7.88975C27.2003 8.00176 27.2883 8.07577 27.3963 8.11178C27.5044 8.14779 27.6204 8.16579 27.7444 8.16579C27.8364 8.16579 27.9324 8.15779 28.0324 8.14178C28.1364 8.12178 28.2145 8.10578 28.2665 8.09378L28.2725 8.99991C28.1845 9.02792 28.0684 9.05392 27.9244 9.07793C27.7844 9.10593 27.6144 9.11993 27.4143 9.11993C27.1423 9.11993 26.8923 9.06592 26.6642 8.95791C26.4362 8.84989 26.2542 8.66986 26.1181 8.41783C25.9861 8.16179 25.9201 7.81774 25.9201 7.38567V0.928697Z" fill="white"/>
<path d="M29.1306 5.82544V5.68741C29.1306 5.21934 29.1986 4.78528 29.3346 4.38522C29.4707 3.98116 29.6667 3.6311 29.9227 3.33506C30.1788 3.03501 30.4888 2.80298 30.8529 2.63895C31.2169 2.47093 31.625 2.38692 32.077 2.38692C32.5331 2.38692 32.9432 2.47093 33.3072 2.63895C33.6753 2.80298 33.9873 3.03501 34.2434 3.33506C34.5034 3.6311 34.7014 3.98116 34.8375 4.38522C34.9735 4.78528 35.0415 5.21934 35.0415 5.68741V5.82544C35.0415 6.29351 34.9735 6.72757 34.8375 7.12763C34.7014 7.52769 34.5034 7.87774 34.2434 8.17779C33.9873 8.47383 33.6773 8.70587 33.3132 8.87389C32.9532 9.03792 32.5451 9.11993 32.089 9.11993C31.633 9.11993 31.2229 9.03792 30.8589 8.87389C30.4948 8.70587 30.1828 8.47383 29.9227 8.17779C29.6667 7.87774 29.4707 7.52769 29.3346 7.12763C29.1986 6.72757 29.1306 6.29351 29.1306 5.82544ZM30.2408 5.68741V5.82544C30.2408 6.14948 30.2788 6.45553 30.3548 6.74357C30.4308 7.02762 30.5448 7.27965 30.6968 7.49969C30.8529 7.71972 31.0469 7.89375 31.2789 8.02177C31.511 8.14579 31.781 8.2078 32.089 8.2078C32.3931 8.2078 32.6591 8.14579 32.8872 8.02177C33.1192 7.89375 33.3112 7.71972 33.4632 7.49969C33.6153 7.27965 33.7293 7.02762 33.8053 6.74357C33.8853 6.45553 33.9253 6.14948 33.9253 5.82544V5.68741C33.9253 5.36737 33.8853 5.06532 33.8053 4.78128C33.7293 4.49323 33.6133 4.2392 33.4572 4.01916C33.3052 3.79513 33.1132 3.6191 32.8812 3.49108C32.6531 3.36306 32.3851 3.29905 32.077 3.29905C31.773 3.29905 31.505 3.36306 31.2729 3.49108C31.0449 3.6191 30.8529 3.79513 30.6968 4.01916C30.5448 4.2392 30.4308 4.49323 30.3548 4.78128C30.2788 5.06532 30.2408 5.36737 30.2408 5.68741Z" fill="white"/>
<path d="M37.5439 3.52709V8.99991H36.4337V2.50693H37.5139L37.5439 3.52709ZM39.5722 2.47093L39.5662 3.50309C39.4742 3.48308 39.3861 3.47108 39.3021 3.46708C39.2221 3.45908 39.1301 3.45508 39.0261 3.45508C38.7701 3.45508 38.544 3.49508 38.348 3.5751C38.152 3.65511 37.9859 3.76713 37.8499 3.91115C37.7139 4.05517 37.6059 4.22719 37.5259 4.42722C37.4499 4.62325 37.3998 4.83929 37.3758 5.07532L37.0638 5.25535C37.0638 4.86329 37.1018 4.49524 37.1778 4.15118C37.2578 3.80713 37.3798 3.50309 37.5439 3.23905C37.7079 2.971 37.9159 2.76297 38.168 2.61495C38.424 2.46293 38.728 2.38692 39.0801 2.38692C39.1601 2.38692 39.2521 2.39692 39.3561 2.41692C39.4602 2.43292 39.5322 2.45093 39.5722 2.47093Z" fill="white"/>
<path d="M42.5306 8.32781L44.3369 2.50693H45.5251L42.9207 10.0021C42.8607 10.1621 42.7807 10.3341 42.6806 10.5181C42.5846 10.7062 42.4606 10.8842 42.3086 11.0522C42.1566 11.2202 41.9725 11.3563 41.7565 11.4603C41.5445 11.5683 41.2904 11.6223 40.9944 11.6223C40.9064 11.6223 40.7944 11.6103 40.6583 11.5863C40.5223 11.5623 40.4263 11.5423 40.3703 11.5263L40.3643 10.6262C40.3963 10.6302 40.4463 10.6342 40.5143 10.6382C40.5863 10.6462 40.6363 10.6502 40.6643 10.6502C40.9164 10.6502 41.1304 10.6162 41.3064 10.5481C41.4825 10.4841 41.6305 10.3741 41.7505 10.2181C41.8745 10.0661 41.9805 9.85604 42.0686 9.588L42.5306 8.32781ZM41.2044 2.50693L42.8907 7.5477L43.1787 8.71787L42.3806 9.12593L39.9922 2.50693H41.2044Z" fill="white"/>
<path d="M6.43517 20.8254V20.6874C6.43517 20.2193 6.50318 19.7853 6.6392 19.3852C6.77523 18.9812 6.97125 18.6311 7.22729 18.3351C7.48333 18.035 7.79338 17.803 8.15743 17.639C8.52149 17.4709 8.92955 17.3869 9.38162 17.3869C9.83769 17.3869 10.2477 17.4709 10.6118 17.639C10.9799 17.803 11.2919 18.035 11.5479 18.3351C11.808 18.6311 12.006 18.9812 12.142 19.3852C12.2781 19.7853 12.3461 20.2193 12.3461 20.6874V20.8254C12.3461 21.2935 12.2781 21.7276 12.142 22.1276C12.006 22.5277 11.808 22.8777 11.5479 23.1778C11.2919 23.4738 10.9819 23.7059 10.6178 23.8739C10.2578 24.0379 9.84969 24.1199 9.39362 24.1199C8.93755 24.1199 8.52749 24.0379 8.16343 23.8739C7.79938 23.7059 7.48733 23.4738 7.22729 23.1778C6.97125 22.8777 6.77523 22.5277 6.6392 22.1276C6.50318 21.7276 6.43517 21.2935 6.43517 20.8254ZM7.54534 20.6874V20.8254C7.54534 21.1495 7.58335 21.4555 7.65936 21.7436C7.73537 22.0276 7.84939 22.2797 8.00141 22.4997C8.15743 22.7197 8.35146 22.8937 8.5835 23.0218C8.81553 23.1458 9.08557 23.2078 9.39362 23.2078C9.69767 23.2078 9.96371 23.1458 10.1917 23.0218C10.4238 22.8937 10.6158 22.7197 10.7678 22.4997C10.9199 22.2797 11.0339 22.0276 11.1099 21.7436C11.1899 21.4555 11.2299 21.1495 11.2299 20.8254V20.6874C11.2299 20.3674 11.1899 20.0653 11.1099 19.7813C11.0339 19.4932 10.9178 19.2392 10.7618 19.0192C10.6098 18.7951 10.4178 18.6191 10.1857 18.4911C9.95771 18.3631 9.68966 18.2991 9.38162 18.2991C9.07757 18.2991 8.80953 18.3631 8.5775 18.4911C8.34946 18.6191 8.15743 18.7951 8.00141 19.0192C7.84939 19.2392 7.73537 19.4932 7.65936 19.7813C7.58335 20.0653 7.54534 20.3674 7.54534 20.6874Z" fill="white"/>
<path d="M14.8484 18.8931V23.9999H13.7383V17.5069H14.7884L14.8484 18.8931ZM14.5844 20.5074L14.1223 20.4894C14.1263 20.0453 14.1923 19.6353 14.3204 19.2592C14.4484 18.8791 14.6284 18.5491 14.8604 18.269C15.0925 17.989 15.3685 17.773 15.6886 17.621C16.0126 17.4649 16.3707 17.3869 16.7627 17.3869C17.0828 17.3869 17.3708 17.4309 17.6269 17.5189C17.8829 17.6029 18.1009 17.739 18.281 17.927C18.465 18.115 18.605 18.3591 18.701 18.6591C18.797 18.9552 18.845 19.3172 18.845 19.7453V23.9999H17.7289V19.7333C17.7289 19.3932 17.6789 19.1212 17.5789 18.9171C17.4788 18.7091 17.3328 18.5591 17.1408 18.4671C16.9488 18.3711 16.7127 18.3231 16.4327 18.3231C16.1566 18.3231 15.9046 18.3811 15.6766 18.4971C15.4525 18.6131 15.2585 18.7731 15.0945 18.9772C14.9345 19.1812 14.8084 19.4152 14.7164 19.6793C14.6284 19.9393 14.5844 20.2153 14.5844 20.5074Z" fill="white"/>
<path d="M21.7375 14.7825V23.9999H20.6213V14.7825H21.7375Z" fill="white"/>
<path d="M24.7259 17.5069V23.9999H23.6098V17.5069H24.7259ZM23.5258 15.7847C23.5258 15.6046 23.5798 15.4526 23.6878 15.3286C23.7998 15.2046 23.9638 15.1426 24.1799 15.1426C24.3919 15.1426 24.5539 15.2046 24.6659 15.3286C24.7819 15.4526 24.84 15.6046 24.84 15.7847C24.84 15.9567 24.7819 16.1047 24.6659 16.2287C24.5539 16.3488 24.3919 16.4088 24.1799 16.4088C23.9638 16.4088 23.7998 16.3488 23.6878 16.2287C23.5798 16.1047 23.5258 15.9567 23.5258 15.7847Z" fill="white"/>
<path d="M27.6184 18.8931V23.9999H26.5082V17.5069H27.5584L27.6184 18.8931ZM27.3543 20.5074L26.8923 20.4894C26.8963 20.0453 26.9623 19.6353 27.0903 19.2592C27.2183 18.8791 27.3983 18.5491 27.6304 18.269C27.8624 17.989 28.1384 17.773 28.4585 17.621C28.7825 17.4649 29.1406 17.3869 29.5327 17.3869C29.8527 17.3869 30.1408 17.4309 30.3968 17.5189C30.6528 17.6029 30.8709 17.739 31.0509 17.927C31.2349 18.115 31.3749 18.3591 31.471 18.6591C31.567 18.9552 31.615 19.3172 31.615 19.7453V23.9999H30.4988V19.7333C30.4988 19.3932 30.4488 19.1212 30.3488 18.9171C30.2488 18.7091 30.1027 18.5591 29.9107 18.4671C29.7187 18.3711 29.4827 18.3231 29.2026 18.3231C28.9266 18.3231 28.6745 18.3811 28.4465 18.4971C28.2225 18.6131 28.0284 18.7731 27.8644 18.9772C27.7044 19.1812 27.5784 19.4152 27.4864 19.6793C27.3983 19.9393 27.3543 20.2153 27.3543 20.5074Z" fill="white"/>
<path d="M35.9956 24.1199C35.5436 24.1199 35.1335 24.0439 34.7654 23.8919C34.4014 23.7359 34.0873 23.5178 33.8233 23.2378C33.5633 22.9578 33.3632 22.6257 33.2232 22.2416C33.0832 21.8576 33.0132 21.4375 33.0132 20.9815V20.7294C33.0132 20.2013 33.0912 19.7313 33.2472 19.3192C33.4032 18.9031 33.6153 18.5511 33.8833 18.263C34.1514 17.975 34.4554 17.757 34.7955 17.6089C35.1355 17.4609 35.4876 17.3869 35.8516 17.3869C36.3157 17.3869 36.7157 17.4669 37.0518 17.627C37.3918 17.787 37.6699 18.011 37.8859 18.2991C38.102 18.5831 38.262 18.9191 38.366 19.3072C38.47 19.6913 38.522 20.1113 38.522 20.5674V21.0655H33.6733V20.1593H37.4118V20.0753C37.3958 19.7873 37.3358 19.5072 37.2318 19.2352C37.1318 18.9632 36.9718 18.7391 36.7517 18.5631C36.5317 18.3871 36.2317 18.2991 35.8516 18.2991C35.5996 18.2991 35.3675 18.3531 35.1555 18.4611C34.9435 18.5651 34.7614 18.7211 34.6094 18.9291C34.4574 19.1372 34.3394 19.3912 34.2554 19.6913C34.1714 19.9913 34.1293 20.3374 34.1293 20.7294V20.9815C34.1293 21.2895 34.1714 21.5795 34.2554 21.8516C34.3434 22.1196 34.4694 22.3557 34.6334 22.5597C34.8015 22.7637 35.0035 22.9238 35.2395 23.0398C35.4796 23.1558 35.7516 23.2138 36.0556 23.2138C36.4477 23.2138 36.7798 23.1338 37.0518 22.9738C37.3238 22.8137 37.5619 22.5997 37.7659 22.3317L38.438 22.8657C38.298 23.0778 38.12 23.2798 37.9039 23.4718C37.6879 23.6639 37.4218 23.8199 37.1058 23.9399C36.7938 24.0599 36.4237 24.1199 35.9956 24.1199Z" fill="white"/>
<path fill-rule="evenodd" clip-rule="evenodd" d="M1.34641 8.99991H0.188232V0.262596H3.41072C4.07082 0.262596 4.6289 0.376613 5.08497 0.604648C5.54104 0.832682 5.88709 1.14873 6.12313 1.55279C6.35916 1.95285 6.47718 2.41092 6.47718 2.927C6.47718 3.48708 6.35916 3.96516 6.12313 4.36121C5.88709 4.75727 5.54104 5.05932 5.08497 5.26735C4.6289 5.47138 4.07082 5.5734 3.41072 5.5734H1.34641V8.99991ZM1.34641 4.63126H3.41072C3.86279 4.63126 4.22884 4.55924 4.50888 4.41522C4.78893 4.2712 4.99296 4.07117 5.12098 3.81513C5.253 3.55909 5.31901 3.26705 5.31901 2.939C5.31901 2.63895 5.253 2.35691 5.12098 2.09287C4.99296 1.82883 4.78893 1.6168 4.50888 1.45678C4.22884 1.29275 3.86279 1.21074 3.41072 1.21074H1.34641V4.63126ZM7.63536 4.31921C7.62634 4.34302 7.61758 4.36702 7.60909 4.39122C7.52575 4.62862 7.46748 4.88465 7.43429 5.15934C7.41231 5.34119 7.40132 5.53122 7.40132 5.72942V5.98146C7.40132 6.0096 7.40159 6.0376 7.40212 6.06547C7.40726 6.33426 7.4372 6.5903 7.49194 6.83359C7.5235 6.97385 7.56331 7.10987 7.61135 7.24165C7.75137 7.62571 7.9514 7.95776 8.21144 8.2378C8.47548 8.51784 8.78953 8.73587 9.15359 8.8919C9.52164 9.04392 9.9317 9.11993 10.3838 9.11993C10.8118 9.11993 11.1819 9.05992 11.4939 8.93991C11.81 8.81989 12.076 8.66386 12.2921 8.47183C12.3019 8.46312 12.3116 8.45438 12.3212 8.44563C12.3925 8.38097 12.4594 8.3152 12.5221 8.2483C12.6381 8.12462 12.7394 7.9971 12.8261 7.86574L12.154 7.33166C12.1303 7.36291 12.106 7.39342 12.0813 7.4232C11.894 7.64887 11.6803 7.83239 11.4399 7.97376C11.1679 8.13378 10.8358 8.2138 10.4438 8.2138C10.1397 8.2138 9.86769 8.15579 9.62766 8.03977C9.39162 7.92375 9.18959 7.76373 9.02156 7.5597C8.85754 7.35567 8.73152 7.11963 8.64351 6.85159C8.64166 6.8456 8.63983 6.8396 8.63802 6.83359C8.56517 6.5917 8.52535 6.33566 8.51854 6.06547H12.9102V5.5674C12.9102 5.47593 12.9081 5.38592 12.9039 5.29736C12.8872 4.94429 12.8373 4.61424 12.7541 4.30721C12.7377 4.2459 12.7199 4.18589 12.7006 4.12718C12.6836 4.07505 12.6654 4.02395 12.6461 3.97387C12.5497 3.72332 12.4257 3.49838 12.2741 3.29905C12.058 3.01101 11.78 2.78698 11.4399 2.62695C11.1039 2.46693 10.7038 2.38692 10.2397 2.38692C9.87569 2.38692 9.52364 2.46093 9.18359 2.60895C8.84354 2.75697 8.53949 2.97501 8.27145 3.26305C8.00341 3.55109 7.79138 3.90315 7.63536 4.31921ZM14.6024 2.50693H13.4142V3.35906H14.6024V7.38567C14.6024 7.81774 14.6684 8.16179 14.8004 8.41783C14.9365 8.66986 15.1185 8.84989 15.3465 8.95791C15.5746 9.06592 15.8246 9.11993 16.0966 9.11993C16.2967 9.11993 16.4667 9.10593 16.6067 9.07793C16.7507 9.05392 16.8667 9.02792 16.9548 8.99991L16.9488 8.09378C16.8968 8.10578 16.8187 8.12178 16.7147 8.14178C16.6147 8.15779 16.5187 8.16579 16.4267 8.16579C16.3409 8.16579 16.259 8.15718 16.1809 8.13997C16.1461 8.13229 16.112 8.12289 16.0786 8.11178C15.9706 8.07578 15.8826 8.00176 15.8146 7.88975C15.7466 7.77773 15.7126 7.6117 15.7126 7.39167V3.35906H16.9248V2.50693H15.7126V0.928697H14.6024V2.50693ZM19.1931 7.24165C19.0771 7.02562 19.0191 6.76758 19.0191 6.46753H17.8669C17.8669 6.74456 17.9048 7.0006 17.9807 7.23565C18.0243 7.37059 18.0804 7.4986 18.1489 7.61971C18.341 7.94776 18.595 8.2238 18.9111 8.44783C19.2311 8.67186 19.5852 8.83989 19.9732 8.95191C20.3653 9.06392 20.7633 9.11993 21.1674 9.11993C21.6275 9.11993 22.0435 9.06592 22.4156 8.95791C22.7916 8.84589 23.1137 8.68787 23.3817 8.48384C23.6498 8.27981 23.8558 8.03377 23.9998 7.74572C24.1438 7.45768 24.2159 7.13563 24.2159 6.77958C24.2159 6.43953 24.1579 6.13548 24.0418 5.86744C23.9298 5.5954 23.7558 5.35336 23.5198 5.14133C23.2877 4.9253 22.9917 4.73127 22.6316 4.55924C22.2716 4.38722 21.8435 4.2312 21.3474 4.09117C20.9874 3.99116 20.6773 3.88714 20.4173 3.77913C20.1612 3.67111 19.9492 3.55309 19.7812 3.42507C19.6172 3.29705 19.4951 3.15903 19.4151 3.01101C19.3391 2.85899 19.3011 2.69096 19.3011 2.50693C19.3011 2.23489 19.3651 1.99286 19.4931 1.78083C19.6252 1.56879 19.8252 1.40077 20.0932 1.27675C20.3613 1.15273 20.7013 1.09072 21.1134 1.09072C21.5495 1.09072 21.9095 1.16473 22.1936 1.31275C22.4776 1.45678 22.6896 1.65681 22.8296 1.91285C22.9697 2.16488 23.0397 2.45493 23.0397 2.78298H24.1919C24.1919 2.68979 24.1868 2.59778 24.1768 2.50693C24.1583 2.33891 24.1226 2.17489 24.0698 2.01486C24.04 1.92441 24.0046 1.83523 23.9638 1.74733C23.9248 1.66332 23.8808 1.58047 23.8318 1.49878C23.5918 1.09472 23.2417 0.768673 22.7816 0.520635C22.3256 0.268597 21.7695 0.142578 21.1134 0.142578C20.6653 0.142578 20.2593 0.202587 19.8952 0.322605C19.5312 0.442623 19.2171 0.610649 18.9531 0.826681C18.693 1.03871 18.493 1.28875 18.353 1.57679C18.213 1.86484 18.1429 2.17889 18.1429 2.51894C18.1429 2.85899 18.209 3.16103 18.341 3.42507C18.473 3.68911 18.663 3.92315 18.9111 4.12718C19.1591 4.33121 19.4571 4.51324 19.8052 4.67326C20.1532 4.82929 20.5433 4.97131 20.9754 5.09933C21.3874 5.21934 21.7275 5.33736 21.9955 5.45338C22.2676 5.5694 22.4796 5.69141 22.6316 5.81943C22.7876 5.94745 22.8957 6.09148 22.9557 6.2515C23.0197 6.40752 23.0517 6.58755 23.0517 6.79158C23.0517 7.07562 22.9777 7.32166 22.8296 7.52969C22.6856 7.73772 22.4736 7.89775 22.1936 8.00976C21.9135 8.12178 21.5715 8.17779 21.1674 8.17779C20.8874 8.17779 20.6173 8.14579 20.3573 8.08178C20.1012 8.01377 19.8712 7.90975 19.6672 7.76973C19.4671 7.62971 19.3091 7.45368 19.1931 7.24165ZM24.7319 2.50693V3.35906H25.9201V7.38567C25.9201 7.81774 25.9861 8.16179 26.1181 8.41783C26.2542 8.66986 26.4362 8.84989 26.6642 8.95791C26.8923 9.06592 27.1423 9.11993 27.4143 9.11993C27.6144 9.11993 27.7844 9.10593 27.9244 9.07793C28.0684 9.05392 28.1845 9.02792 28.2725 8.99991L28.2665 8.09378C28.2145 8.10578 28.1364 8.12178 28.0324 8.14178C27.9324 8.15779 27.8364 8.16579 27.7444 8.16579C27.6586 8.16579 27.5767 8.15718 27.4986 8.13997C27.4638 8.13229 27.4297 8.12289 27.3963 8.11178C27.2883 8.07578 27.2003 8.00176 27.1323 7.88975C27.0643 7.77773 27.0303 7.6117 27.0303 7.39167V3.35906H28.2425V2.50693H27.0303V0.928697H25.9201V2.50693H24.7319ZM38.2837 2.55299C38.2441 2.57201 38.2055 2.59266 38.168 2.61495C37.9688 2.73193 37.7971 2.88638 37.6529 3.07832C37.6146 3.12925 37.5783 3.18283 37.5439 3.23905C37.5412 3.2434 37.5385 3.24777 37.5358 3.25215L37.5352 3.23377L37.5139 2.50693H36.4337V8.99991H37.5439V4.38379C37.5635 4.33803 37.5847 4.29379 37.6074 4.25108C37.6082 4.24959 37.609 4.2481 37.6098 4.24661C37.6767 4.12165 37.7567 4.00982 37.8499 3.91115C37.9488 3.80641 38.0636 3.71862 38.1943 3.64774C38.2322 3.62717 38.2714 3.60801 38.312 3.5903C38.3239 3.58511 38.3359 3.58004 38.348 3.5751C38.4837 3.5197 38.6338 3.48349 38.7983 3.46644C38.8714 3.45887 38.9473 3.45508 39.0261 3.45508C39.1301 3.45508 39.2221 3.45908 39.3021 3.46708C39.3759 3.47059 39.4527 3.48026 39.5326 3.4961C39.5437 3.49831 39.5549 3.50064 39.5662 3.50309L39.5722 2.47093C39.5322 2.45093 39.4602 2.43292 39.3561 2.41692C39.2743 2.40118 39.1998 2.39163 39.1328 2.38828C39.1147 2.38737 39.0971 2.38692 39.0801 2.38692C38.7797 2.38692 38.5142 2.44228 38.2837 2.55299ZM42.3099 8.92989L42.0686 9.588C42.0144 9.753 41.9534 9.89601 41.8856 10.017C41.8432 10.0926 41.7982 10.1597 41.7505 10.2181C41.6305 10.3741 41.4825 10.4841 41.3064 10.5481C41.2234 10.5802 41.1319 10.6048 41.0319 10.6217C40.92 10.6407 40.7974 10.6502 40.6643 10.6502C40.6363 10.6502 40.5863 10.6462 40.5143 10.6382C40.4463 10.6342 40.3963 10.6302 40.3643 10.6262L40.3703 11.5263C40.4263 11.5423 40.5223 11.5623 40.6583 11.5863C40.7944 11.6103 40.9064 11.6223 40.9944 11.6223C41.2904 11.6223 41.5445 11.5683 41.7565 11.4603C41.9725 11.3563 42.1566 11.2202 42.3086 11.0522C42.4606 10.8842 42.5846 10.7062 42.6806 10.5181C42.7807 10.3341 42.8607 10.1621 42.9207 10.0021L45.5251 2.50693H44.3369L42.8295 7.36474L41.2044 2.50693H39.9922L42.3099 8.92989ZM11.8 5.15934V5.07532C11.787 4.84204 11.7452 4.61401 11.6745 4.39122C11.6579 4.33892 11.6397 4.28691 11.62 4.2352C11.5199 3.96315 11.3599 3.73912 11.1399 3.56309C10.9199 3.38707 10.6198 3.29905 10.2397 3.29905C9.98771 3.29905 9.75568 3.35306 9.54364 3.46108C9.33161 3.56509 9.14958 3.72112 8.99756 3.92915C8.89911 4.06388 8.81491 4.2179 8.74499 4.39122C8.70694 4.48552 8.67311 4.58554 8.64351 4.69126C8.60284 4.83651 8.57201 4.99253 8.55103 5.15934H11.8ZM29.9227 8.17779C29.6667 7.87774 29.4706 7.52769 29.3346 7.12763C29.1986 6.72757 29.1306 6.29351 29.1306 5.82544V5.68741C29.1306 5.21934 29.1986 4.78528 29.3346 4.38522C29.4706 3.98116 29.6667 3.6311 29.9227 3.33506C30.1788 3.03501 30.4888 2.80298 30.8529 2.63895C31.2169 2.47093 31.625 2.38692 32.077 2.38692C32.5331 2.38692 32.9432 2.47093 33.3072 2.63895C33.6753 2.80298 33.9873 3.03501 34.2434 3.33506C34.5034 3.6311 34.7014 3.98116 34.8375 4.38522C34.9735 4.78528 35.0415 5.21934 35.0415 5.68741V5.82544C35.0415 6.29351 34.9735 6.72757 34.8375 7.12763C34.7014 7.52769 34.5034 7.87774 34.2434 8.17779C33.9873 8.47383 33.6773 8.70587 33.3132 8.87389C32.9532 9.03792 32.5451 9.11993 32.089 9.11993C31.633 9.11993 31.2229 9.03792 30.8589 8.87389C30.4948 8.70587 30.1828 8.47383 29.9227 8.17779ZM33.8053 4.78128C33.7293 4.49323 33.6133 4.2392 33.4572 4.01916C33.3052 3.79513 33.1132 3.6191 32.8812 3.49108C32.6531 3.36306 32.3851 3.29905 32.077 3.29905C31.773 3.29905 31.505 3.36306 31.2729 3.49108C31.0449 3.6191 30.8529 3.79513 30.6968 4.01916C30.5448 4.2392 30.4308 4.49323 30.3548 4.78128C30.2788 5.06532 30.2408 5.36737 30.2408 5.68741V5.82544C30.2408 6.14948 30.2788 6.45553 30.3548 6.74357C30.4308 7.02762 30.5448 7.27965 30.6968 7.49969C30.8529 7.71972 31.0469 7.89375 31.2789 8.02177C31.511 8.14579 31.781 8.2078 32.089 8.2078C32.3931 8.2078 32.6591 8.14579 32.8872 8.02177C33.1192 7.89375 33.3112 7.71972 33.4632 7.49969C33.6153 7.27965 33.7293 7.02762 33.8053 6.74357C33.8853 6.45553 33.9253 6.14948 33.9253 5.82544V5.68741C33.9253 5.36737 33.8853 5.06532 33.8053 4.78128ZM7.22729 23.1778C6.97125 22.8777 6.77523 22.5277 6.6392 22.1276C6.50318 21.7276 6.43517 21.2935 6.43517 20.8254V20.6874C6.43517 20.2193 6.50318 19.7853 6.6392 19.3852C6.77523 18.9812 6.97125 18.6311 7.22729 18.3351C7.48333 18.035 7.79338 17.803 8.15743 17.639C8.52149 17.4709 8.92955 17.3869 9.38162 17.3869C9.83769 17.3869 10.2477 17.4709 10.6118 17.639C10.9799 17.803 11.2919 18.035 11.5479 18.3351C11.808 18.6311 12.006 18.9812 12.142 19.3852C12.2781 19.7853 12.3461 20.2193 12.3461 20.6874V20.8254C12.3461 21.2935 12.2781 21.7276 12.142 22.1276C12.006 22.5277 11.808 22.8777 11.5479 23.1778C11.2919 23.4738 10.9819 23.7059 10.6178 23.8739C10.2578 24.0379 9.84969 24.1199 9.39362 24.1199C8.93755 24.1199 8.52749 24.0379 8.16343 23.8739C7.79938 23.7059 7.48733 23.4738 7.22729 23.1778ZM10.7618 19.0192C10.6098 18.7951 10.4178 18.6191 10.1857 18.4911C9.9577 18.3631 9.68966 18.2991 9.38162 18.2991C9.07757 18.2991 8.80953 18.3631 8.5775 18.4911C8.34946 18.6191 8.15743 18.7951 8.00141 19.0192C7.84939 19.2392 7.73537 19.4932 7.65936 19.7813C7.58335 20.0653 7.54534 20.3674 7.54534 20.6874V20.8254C7.54534 21.1495 7.58335 21.4555 7.65936 21.7436C7.73537 22.0276 7.84939 22.2797 8.00141 22.4997C8.15743 22.7197 8.35146 22.8937 8.5835 23.0218C8.81553 23.1458 9.08557 23.2078 9.39362 23.2078C9.69767 23.2078 9.96371 23.1458 10.1917 23.0218C10.4238 22.8937 10.6158 22.7197 10.7678 22.4997C10.9199 22.2797 11.0339 22.0276 11.1099 21.7436C11.1899 21.4555 11.2299 21.1495 11.2299 20.8254V20.6874C11.2299 20.3674 11.1899 20.0653 11.1099 19.7813C11.0339 19.4932 10.9178 19.2392 10.7618 19.0192ZM13.7383 17.5069V23.9999H14.8484V19.3662C14.9188 19.2263 15.0008 19.0966 15.0945 18.9772C15.1177 18.9483 15.1415 18.9203 15.166 18.8931C15.1703 18.8883 15.1746 18.8836 15.179 18.8788C15.2404 18.812 15.3055 18.7507 15.3743 18.6949C15.4461 18.6366 15.522 18.5843 15.6019 18.538C15.6264 18.5238 15.6513 18.5102 15.6766 18.4971C15.7156 18.4772 15.7553 18.4591 15.7957 18.4426C15.9915 18.3629 16.2039 18.3231 16.4327 18.3231C16.7127 18.3231 16.9488 18.3711 17.1408 18.4671C17.3328 18.5591 17.4788 18.7091 17.5789 18.9171C17.6789 19.1212 17.7289 19.3932 17.7289 19.7333V23.9999H18.845V19.7453C18.845 19.3172 18.797 18.9552 18.701 18.6591C18.605 18.3591 18.465 18.115 18.281 17.927C18.1009 17.739 17.8829 17.6029 17.6269 17.5189C17.3708 17.4309 17.0828 17.3869 16.7627 17.3869C16.3707 17.3869 16.0126 17.4649 15.6886 17.621C15.6466 17.6409 15.6054 17.6619 15.5649 17.6841C15.5189 17.7092 15.4739 17.7358 15.4299 17.7638C15.398 17.7841 15.3666 17.8052 15.3356 17.827C15.3342 17.828 15.3327 17.8291 15.3312 17.8302C15.1581 17.9529 15.0012 18.0992 14.8604 18.269C14.8479 18.2841 14.8356 18.2994 14.8234 18.3147L14.7884 17.5069H13.7383ZM24.1118 15.8595C24.1208 15.8678 24.1306 15.8756 24.1411 15.8827C24.1544 15.8917 24.1668 15.8983 24.1774 15.903C24.1782 15.9026 24.179 15.9023 24.1799 15.9019C24.189 15.8976 24.1995 15.8918 24.2108 15.8842C24.2273 15.8731 24.2425 15.86 24.2556 15.8458C24.2558 15.8457 24.2555 15.846 24.2556 15.8458C24.2562 15.8452 24.2572 15.8441 24.2578 15.8435L24.1951 15.7869L24.1118 15.8595ZM24.2045 15.7787L24.267 15.8331C24.2704 15.8292 24.2748 15.8234 24.2793 15.8157C24.2838 15.808 24.2874 15.8001 24.2901 15.7928C24.2912 15.7896 24.292 15.7869 24.2926 15.7847C24.2929 15.7836 24.2931 15.7826 24.2933 15.7817C24.2927 15.7776 24.2912 15.7705 24.2878 15.7614C24.2812 15.7432 24.2721 15.7301 24.267 15.7243L24.2045 15.7787ZM24.1867 15.7631L24.1113 15.6975C24.1233 15.6856 24.1366 15.6748 24.1508 15.6655C24.1603 15.6593 24.1693 15.6543 24.1773 15.6504C24.1781 15.6509 24.179 15.6513 24.1799 15.6517C24.1864 15.6551 24.1935 15.6592 24.2011 15.6641C24.2184 15.6754 24.2348 15.6891 24.2493 15.7046L24.1867 15.7631ZM24.1043 15.7048L24.1779 15.7713L24.1769 15.7723L24.0984 15.8455C24.0978 15.8446 24.0972 15.8438 24.0966 15.8429C24.0907 15.8346 24.0841 15.8232 24.0788 15.8095C24.0741 15.7972 24.0725 15.7883 24.072 15.7847C24.072 15.7841 24.0719 15.7837 24.0719 15.7834C24.0721 15.7788 24.0736 15.7641 24.0813 15.7444C24.0896 15.7232 24.0999 15.7097 24.1043 15.7048ZM27.8644 18.9772C27.8876 18.9483 27.9115 18.9203 27.9359 18.8931C27.9402 18.8883 27.9445 18.8836 27.9489 18.8788C28.0103 18.812 28.0754 18.7507 28.1443 18.6949C28.2161 18.6366 28.2919 18.5843 28.3718 18.538C28.3963 18.5238 28.4212 18.5102 28.4465 18.4971C28.4855 18.4772 28.5252 18.4591 28.5656 18.4426C28.7614 18.3629 28.9738 18.3231 29.2026 18.3231C29.4827 18.3231 29.7187 18.3711 29.9107 18.4671C30.1027 18.5591 30.2488 18.7091 30.3488 18.9171C30.4488 19.1212 30.4988 19.3932 30.4988 19.7333V23.9999H31.615V19.7453C31.615 19.3172 31.567 18.9552 31.471 18.6591C31.3749 18.3591 31.2349 18.115 31.0509 17.927C30.8709 17.739 30.6528 17.6029 30.3968 17.5189C30.1408 17.4309 29.8527 17.3869 29.5327 17.3869C29.1406 17.3869 28.7825 17.4649 28.4585 17.621C28.4165 17.6409 28.3753 17.6619 28.3349 17.6841C28.2889 17.7092 28.2439 17.7358 28.1998 17.7638C28.1679 17.7841 28.1365 17.8052 28.1056 17.827C28.1041 17.828 28.1026 17.8291 28.1011 17.8302C27.928 17.9529 27.7711 18.0992 27.6304 18.269C27.6179 18.2841 27.6055 18.2994 27.5933 18.3147L27.5584 17.5069H26.5082V23.9999H27.6184V19.3662C27.6887 19.2263 27.7707 19.0966 27.8644 18.9772ZM37.1058 23.9399C37.4218 23.8199 37.6879 23.6639 37.9039 23.4718C37.9137 23.4631 37.9235 23.4544 37.9331 23.4456C38.0043 23.381 38.0713 23.3152 38.134 23.2483C38.2499 23.1246 38.3513 22.9971 38.438 22.8657L37.7659 22.3317C37.7422 22.3629 37.7179 22.3934 37.6932 22.4232C37.5059 22.6489 37.2921 22.8324 37.0518 22.9738C36.7798 23.1338 36.4477 23.2138 36.0556 23.2138C35.7516 23.2138 35.4796 23.1558 35.2395 23.0398C35.0035 22.9238 34.8015 22.7637 34.6334 22.5597C34.4694 22.3557 34.3434 22.1196 34.2554 21.8516C34.2535 21.8456 34.2517 21.8396 34.2499 21.8336C34.177 21.5917 34.1372 21.3357 34.1304 21.0655H38.522V20.5674C38.522 20.4759 38.5199 20.3859 38.5157 20.2974C38.4991 19.9443 38.4491 19.6142 38.366 19.3072C38.262 18.9191 38.1019 18.5831 37.8859 18.2991C37.6699 18.011 37.3918 17.787 37.0518 17.627C36.7157 17.4669 36.3157 17.3869 35.8516 17.3869C35.4876 17.3869 35.1355 17.4609 34.7955 17.6089C34.4554 17.757 34.1514 17.975 33.8833 18.263C33.6153 18.5511 33.4032 18.9031 33.2472 19.3192C33.2382 19.343 33.2294 19.367 33.221 19.3912C33.1376 19.6286 33.0793 19.8847 33.0462 20.1593C33.0242 20.3412 33.0132 20.5312 33.0132 20.7294V20.9815C33.0132 21.0096 33.0134 21.0376 33.014 21.0655C33.0191 21.3343 33.0491 21.5903 33.1038 21.8336C33.1354 21.9738 33.1752 22.1099 33.2232 22.2416C33.3632 22.6257 33.5633 22.9578 33.8233 23.2378C34.0873 23.5178 34.4014 23.7359 34.7654 23.8919C35.1335 24.0439 35.5436 24.1199 35.9956 24.1199C36.4237 24.1199 36.7938 24.0599 37.1058 23.9399ZM34.3568 19.3912C34.3188 19.4855 34.285 19.5855 34.2554 19.6913C34.2147 19.8365 34.1839 19.9925 34.1629 20.1593H37.4118V20.0753C37.3989 19.842 37.3571 19.614 37.2864 19.3912C37.2698 19.3389 37.2516 19.2869 37.2318 19.2352C37.1318 18.9632 36.9718 18.7391 36.7517 18.5631C36.5317 18.3871 36.2317 18.2991 35.8516 18.2991C35.5996 18.2991 35.3675 18.3531 35.1555 18.4611C34.9435 18.5651 34.7614 18.7211 34.6094 18.9291C34.511 19.0639 34.4268 19.2179 34.3568 19.3912ZM21.7375 14.7825H20.6213V23.9999H21.7375V14.7825ZM24.7259 17.5069H23.6098V23.9999H24.7259V17.5069ZM23.6878 15.3286C23.5798 15.4526 23.5258 15.6046 23.5258 15.7847C23.5258 15.9567 23.5798 16.1047 23.6878 16.2287C23.7998 16.3488 23.9638 16.4088 24.1799 16.4088C24.3919 16.4088 24.5539 16.3488 24.6659 16.2287C24.7819 16.1047 24.84 15.9567 24.84 15.7847C24.84 15.6046 24.7819 15.4526 24.6659 15.3286C24.5539 15.2046 24.3919 15.1426 24.1799 15.1426C23.9638 15.1426 23.7998 15.2046 23.6878 15.3286Z" fill="white"/>
<path fill-rule="evenodd" clip-rule="evenodd" d="M9.10002 23.4576C8.93833 22.8092 8.45617 22.0478 8.08059 21.2254C8.40252 21.9303 8.72444 22.6352 9.10002 23.4576ZM10.0071 23.3835C9.47124 22.5045 9.14859 21.5037 8.82594 20.5029C8.5584 20.2113 8.34524 20.3332 8.13207 20.4551C7.7594 20.8163 7.38599 20.8817 7.81377 21.2297C8.34959 22.1087 8.72516 22.9311 8.99416 23.8145C9.10074 23.7535 9.31391 23.6317 9.42049 23.5707C9.63365 23.4488 9.68658 23.2704 10.0071 23.3835ZM7.70502 20.4029C7.54333 19.7546 7.06117 18.9931 6.68559 18.1707C7.00752 18.8756 7.32944 19.5805 7.70502 20.4029ZM6.25636 17.2308C6.14833 16.6999 5.61252 15.8209 5.29059 15.116C5.61252 15.8209 5.88078 16.4083 6.31002 17.3483C6.31002 17.3483 6.31002 17.3483 6.25636 17.2308ZM7.1634 17.1566C6.68124 16.3952 6.35859 15.3943 5.98229 14.276C5.7684 14.102 5.55523 14.2238 5.34207 14.3457C4.96939 14.707 4.59599 14.7723 5.02377 15.1204C5.50593 15.8818 5.93516 16.8218 6.20416 17.7051C6.31074 17.6442 6.52391 17.5223 6.63049 17.4613C6.79 17.222 6.89658 17.161 7.1634 17.1566ZM4.86136 14.1761C4.75333 13.6452 4.21751 12.7662 3.89559 12.0613C4.21751 12.7662 4.48578 13.3537 4.91502 14.2936L4.86136 14.1761ZM5.7684 14.102C5.28624 13.3405 4.96359 12.3396 4.58729 11.2213C4.3734 11.0473 4.16023 11.1691 3.94707 11.291C3.57439 11.6523 3.14734 11.6001 3.62877 12.0657C4.11093 12.8272 4.54016 13.7671 4.80916 14.6504C4.91574 14.5895 5.12891 14.4676 5.18183 14.2892C5.395 14.1673 5.50158 14.1063 5.7684 14.102ZM5.56321 17.4789C5.13616 17.4268 4.81569 17.3137 4.38863 17.2615C4.81569 17.3137 5.08251 17.3093 5.56321 17.4789C4.92227 17.2527 4.44156 17.0831 3.85427 16.9744C4.33498 17.144 4.76203 17.1962 5.40298 17.4224C4.70838 17.0787 4.12109 16.97 3.58673 16.6829C4.06744 16.8525 4.54814 17.0221 5.24274 17.3658C4.65473 16.9612 4.01378 16.735 3.37284 16.5088C4.01378 16.735 4.70838 17.0787 5.56321 17.4789C5.72345 17.5355 5.72345 17.5355 5.56321 17.4789ZM5.35005 17.6008C5.35005 17.6008 5.24347 17.6617 5.18981 17.5443C4.38936 17.5574 3.69549 17.5097 3.05527 17.5794C3.64256 17.6881 4.28278 17.6184 4.923 17.5486C4.28278 17.6184 3.74914 17.6272 3.26916 17.7534C3.80279 17.7446 4.44301 17.6749 5.08323 17.6052C4.54959 17.614 4.06961 17.7403 3.58963 17.8665C4.22985 17.7968 4.70983 17.6705 5.24347 17.6617C4.87007 17.7271 4.49667 17.7924 4.12327 17.8577C4.49667 17.7924 4.87007 17.7271 5.24347 17.6617C5.35005 17.6008 5.35005 17.6008 5.35005 17.6008ZM5.67197 18.3057C5.45881 18.4276 5.2993 18.667 4.97955 18.8498C5.19272 18.7279 5.35223 18.4885 5.67197 18.3057C5.35223 18.4885 4.97955 18.8498 4.6598 19.0326C4.97955 18.8498 5.24564 18.5495 5.56539 18.3667C5.13906 18.6104 4.71273 18.8542 4.34006 19.2154C4.60615 18.9151 5.03248 18.6714 5.45881 18.4276C5.03248 18.6714 4.60615 18.9151 4.17982 19.1589C4.60615 18.9151 5.08541 18.4929 5.61832 18.1882C5.7249 18.1273 5.77856 18.2448 5.67197 18.3057ZM5.72563 18.4232C5.61904 18.4842 5.61904 18.4842 5.61904 18.4842C5.19344 19.0238 4.87442 19.5026 4.66198 19.9204C4.87442 19.5026 5.19344 19.0238 5.45953 18.7235C5.24709 19.1413 4.981 19.4416 4.76856 19.8594C4.981 19.4416 5.30002 18.9629 5.51246 18.5451C5.30002 18.9629 5.19417 19.3198 5.03466 19.5591C5.19417 19.3198 5.40661 18.902 5.61904 18.4842C5.51319 18.841 5.35368 19.0804 5.30075 19.2588C5.46026 19.0194 5.45953 18.7235 5.61904 18.4842L5.72563 18.4232ZM5.99172 18.1229C6.0983 18.062 6.0983 18.062 6.20488 18.001C6.25854 18.1185 6.25854 18.1185 6.41877 18.1751C6.95459 19.054 7.33016 19.8764 7.59916 20.7598C7.70574 20.6989 7.91891 20.577 8.02549 20.516C8.185 20.2767 8.29158 20.2157 8.5584 20.2113C8.07624 19.4499 7.75359 18.449 7.37729 17.3307C7.1634 17.1566 6.95023 17.2785 6.73707 17.4004C6.47098 17.7007 6.20416 17.7051 6.15123 17.8835C6.09758 17.766 5.93734 17.7095 5.88369 17.592C5.83003 17.4745 5.6698 17.418 5.40225 17.1265C4.70765 16.7828 3.586 16.3869 2.99871 16.2782C3.15967 16.6307 4.01451 17.0309 4.70911 17.3746C4.01523 17.3268 3.10819 17.401 2.57528 17.7057C3.10965 17.9928 5.08396 17.9011 5.67052 17.7139C5.67052 17.7139 5.7771 17.653 5.83076 17.7704C5.99099 17.827 6.15123 17.8835 6.20488 18.001C6.0983 18.062 5.99172 18.1229 5.83148 18.0664C5.83148 18.0664 5.7249 18.1273 5.51174 18.2492C4.92517 18.4364 4.23275 18.9805 3.86007 19.3417C4.18055 19.4548 4.82004 19.0892 5.2993 18.667C4.98028 19.1457 4.60833 19.8029 4.39589 20.2207C4.87587 20.0944 5.72635 18.7191 5.77856 18.2448C5.88514 18.1838 5.88514 18.1838 5.99172 18.1229Z" fill="white"/>
</svg>
