<svg width="67" height="43" viewBox="0 0 67 43" fill="none" xmlns="http://www.w3.org/2000/svg">
<path d="M10.1777 13.8081H7.31481V12.6588H10.1777C10.7321 12.6588 11.1811 12.5709 11.5245 12.3952C11.8679 12.2195 12.1182 11.9755 12.2752 11.6632C12.4371 11.3509 12.518 10.9946 12.518 10.5944C12.518 10.2284 12.4371 9.88434 12.2752 9.56224C12.1182 9.24014 11.8679 8.98149 11.5245 8.78627C11.1811 8.58618 10.7321 8.48614 10.1777 8.48614H7.64599V17.988H6.22559V7.32951H10.1777C10.9872 7.32951 11.6717 7.4686 12.231 7.74678C12.7904 8.02495 13.2148 8.41049 13.5042 8.9034C13.7937 9.39143 13.9384 9.95022 13.9384 10.5798C13.9384 11.263 13.7937 11.8462 13.5042 12.3294C13.2148 12.8125 12.7904 13.181 12.231 13.4347C11.6717 13.6836 10.9872 13.8081 10.1777 13.8081Z" fill="#FE9013"/>
<path d="M18.7295 18.1344C18.1751 18.1344 17.6722 18.0417 17.2208 17.8563C16.7743 17.6659 16.3892 17.4 16.0654 17.0583C15.7465 16.7167 15.5011 16.3117 15.3294 15.8431C15.1577 15.3746 15.0718 14.8622 15.0718 14.3059V13.9984C15.0718 13.3542 15.1675 12.7808 15.3589 12.2781C15.5502 11.7706 15.8102 11.3411 16.139 10.9897C16.4677 10.6383 16.8406 10.3724 17.2576 10.1918C17.6747 10.0112 18.1064 9.92094 18.5529 9.92094C19.1221 9.92094 19.6127 10.0185 20.0248 10.2138C20.4419 10.409 20.7829 10.6823 21.0478 11.0336C21.3128 11.3801 21.509 11.7901 21.6366 12.2635C21.7642 12.732 21.8279 13.2444 21.8279 13.8008V14.4083H15.8814V13.303H20.4664V13.2005C20.4468 12.8491 20.3732 12.5075 20.2456 12.1756C20.123 11.8438 19.9267 11.5705 19.6569 11.3557C19.387 11.141 19.019 11.0336 18.5529 11.0336C18.2438 11.0336 17.9592 11.0995 17.6992 11.2313C17.4392 11.3582 17.2159 11.5485 17.0295 11.8023C16.843 12.0561 16.6983 12.366 16.5953 12.732C16.4922 13.098 16.4407 13.5201 16.4407 13.9984V14.3059C16.4407 14.6816 16.4922 15.0355 16.5953 15.3673C16.7032 15.6943 16.8578 15.9822 17.0589 16.2311C17.265 16.48 17.5128 16.6752 17.8022 16.8168C18.0966 16.9583 18.4303 17.0291 18.8031 17.0291C19.284 17.0291 19.6912 16.9314 20.0248 16.7362C20.3585 16.541 20.6504 16.2799 20.9006 15.953L21.7249 16.6045C21.5532 16.8631 21.3348 17.1096 21.0699 17.3438C20.805 17.5781 20.4787 17.7684 20.0911 17.9148C19.7084 18.0612 19.2545 18.1344 18.7295 18.1344Z" fill="#FE9013"/>
<path d="M26.7515 10.0673V11.1068H22.4461V10.0673H26.7515ZM23.9033 8.14208H25.2649V16.0262C25.2649 16.2946 25.3066 16.4971 25.39 16.6338C25.4734 16.7704 25.5813 16.8607 25.7138 16.9046C25.8463 16.9485 25.9886 16.9705 26.1407 16.9705C26.2535 16.9705 26.3713 16.9607 26.4939 16.9412C26.6215 16.9168 26.7172 16.8973 26.781 16.8826L26.7883 17.988C26.6804 18.0222 26.5381 18.0539 26.3615 18.0832C26.1897 18.1174 25.9812 18.1344 25.7359 18.1344C25.4023 18.1344 25.0956 18.0686 24.8159 17.9368C24.5363 17.805 24.313 17.5854 24.1462 17.2779C23.9843 16.9656 23.9033 16.5459 23.9033 16.0188V8.14208Z" fill="#FE9013"/>
<path d="M34.2657 15.2941C34.2657 15.0452 34.2264 14.8256 34.1479 14.6353C34.0743 14.4401 33.9418 14.2644 33.7505 14.1082C33.5641 13.952 33.304 13.8032 32.9704 13.6617C32.6416 13.5201 32.2246 13.3762 31.7192 13.2298C31.1894 13.0736 30.711 12.9003 30.2841 12.71C29.8573 12.5148 29.4917 12.2928 29.1875 12.0439C28.8833 11.795 28.6503 11.5095 28.4884 11.1874C28.3265 10.8653 28.2455 10.4968 28.2455 10.082C28.2455 9.66716 28.3314 9.28406 28.5031 8.93268C28.6748 8.5813 28.9201 8.27629 29.2391 8.01763C29.5629 7.7541 29.948 7.54913 30.3945 7.40272C30.841 7.25631 31.339 7.18311 31.8885 7.18311C32.6932 7.18311 33.3752 7.33683 33.9345 7.64429C34.4987 7.94687 34.928 8.34461 35.2224 8.83752C35.5168 9.32554 35.664 9.84773 35.664 10.4041H34.251C34.251 10.0039 34.1651 9.65008 33.9934 9.34263C33.8216 9.03029 33.5616 8.78627 33.2132 8.61059C32.8649 8.43002 32.4233 8.33973 31.8885 8.33973C31.3832 8.33973 30.9661 8.41537 30.6374 8.56666C30.3087 8.71795 30.0633 8.92292 29.9014 9.18158C29.7444 9.44023 29.6659 9.73549 29.6659 10.0673C29.6659 10.2918 29.7125 10.4968 29.8058 10.6823C29.9039 10.8628 30.0535 11.0312 30.2547 11.1874C30.4608 11.3435 30.7208 11.4875 31.0348 11.6193C31.3537 11.751 31.734 11.8779 32.1755 11.9999C32.7839 12.1707 33.3089 12.3611 33.7505 12.5709C34.1921 12.7808 34.5551 13.0175 34.8397 13.281C35.1292 13.5397 35.3426 13.8349 35.48 14.1668C35.6223 14.4938 35.6934 14.8647 35.6934 15.2795C35.6934 15.7138 35.6051 16.1067 35.4285 16.4581C35.2519 16.8094 34.9992 17.1096 34.6704 17.3585C34.3417 17.6074 33.9468 17.8001 33.4855 17.9368C33.0293 18.0686 32.519 18.1344 31.9548 18.1344C31.4592 18.1344 30.971 18.0661 30.4902 17.9295C30.0143 17.7928 29.5801 17.5878 29.1875 17.3146C28.7999 17.0413 28.4884 16.7045 28.2529 16.3043C28.0223 15.8993 27.907 15.4308 27.907 14.8988H29.32C29.32 15.2648 29.3912 15.5796 29.5334 15.8431C29.6757 16.1018 29.8695 16.3165 30.1149 16.4873C30.3651 16.6582 30.6472 16.785 30.9612 16.868C31.2801 16.9461 31.6113 16.9851 31.9548 16.9851C32.4503 16.9851 32.8698 16.9168 33.2132 16.7802C33.5567 16.6435 33.8167 16.4483 33.9934 16.1945C34.1749 15.9408 34.2657 15.6406 34.2657 15.2941Z" fill="#FE9013"/>
<path d="M40.6317 10.0673V11.1068H36.3264V10.0673H40.6317ZM37.7836 8.14208H39.1451V16.0262C39.1451 16.2946 39.1868 16.4971 39.2702 16.6338C39.3536 16.7704 39.4615 16.8607 39.594 16.9046C39.7265 16.9485 39.8688 16.9705 40.0209 16.9705C40.1337 16.9705 40.2515 16.9607 40.3741 16.9412C40.5017 16.9168 40.5974 16.8973 40.6612 16.8826L40.6685 17.988C40.5606 18.0222 40.4183 18.0539 40.2417 18.0832C40.0699 18.1174 39.8614 18.1344 39.6161 18.1344C39.2825 18.1344 38.9758 18.0686 38.6961 17.9368C38.4165 17.805 38.1932 17.5854 38.0264 17.2779C37.8645 16.9656 37.7836 16.5459 37.7836 16.0188V8.14208Z" fill="#FE9013"/>
<path d="M41.721 14.1155V13.9472C41.721 13.3762 41.8044 12.8467 41.9712 12.3586C42.138 11.8657 42.3784 11.4387 42.6924 11.0776C43.0064 10.7115 43.3867 10.4285 43.8332 10.2284C44.2796 10.0234 44.7801 9.92094 45.3345 9.92094C45.8938 9.92094 46.3967 10.0234 46.8432 10.2284C47.2946 10.4285 47.6773 10.7115 47.9913 11.0776C48.3102 11.4387 48.5531 11.8657 48.7199 12.3586C48.8867 12.8467 48.9702 13.3762 48.9702 13.9472V14.1155C48.9702 14.6865 48.8867 15.216 48.7199 15.7041C48.5531 16.1921 48.3102 16.6191 47.9913 16.9851C47.6773 17.3463 47.2971 17.6293 46.8506 17.8343C46.409 18.0344 45.9086 18.1344 45.3492 18.1344C44.7899 18.1344 44.287 18.0344 43.8405 17.8343C43.394 17.6293 43.0113 17.3463 42.6924 16.9851C42.3784 16.6191 42.138 16.1921 41.9712 15.7041C41.8044 15.216 41.721 14.6865 41.721 14.1155ZM43.0825 13.9472V14.1155C43.0825 14.5108 43.1291 14.8842 43.2223 15.2356C43.3155 15.5821 43.4554 15.8895 43.6418 16.1579C43.8332 16.4263 44.0711 16.6386 44.3557 16.7948C44.6403 16.9461 44.9714 17.0217 45.3492 17.0217C45.7221 17.0217 46.0484 16.9461 46.3281 16.7948C46.6126 16.6386 46.8481 16.4263 47.0346 16.1579C47.221 15.8895 47.3609 15.5821 47.4541 15.2356C47.5522 14.8842 47.6013 14.5108 47.6013 14.1155V13.9472C47.6013 13.5567 47.5522 13.1883 47.4541 12.8418C47.3609 12.4904 47.2186 12.1805 47.0272 11.9121C46.8408 11.6388 46.6053 11.4241 46.3207 11.2679C46.041 11.1117 45.7123 11.0336 45.3345 11.0336C44.9616 11.0336 44.6329 11.1117 44.3483 11.2679C44.0687 11.4241 43.8332 11.6388 43.6418 11.9121C43.4554 12.1805 43.3155 12.4904 43.2223 12.8418C43.1291 13.1883 43.0825 13.5567 43.0825 13.9472Z" fill="#FE9013"/>
<path d="M52.0391 11.3118V17.988H50.6776V10.0673H52.0023L52.0391 11.3118ZM54.5267 10.0234L54.5193 11.2825C54.4064 11.2581 54.2985 11.2435 54.1955 11.2386C54.0973 11.2289 53.9845 11.224 53.8569 11.224C53.5429 11.224 53.2657 11.2728 53.0253 11.3704C52.7849 11.468 52.5813 11.6046 52.4144 11.7803C52.2476 11.956 52.1152 12.1659 52.017 12.4099C51.9238 12.649 51.8625 12.9125 51.833 13.2005L51.4503 13.4201C51.4503 12.9418 51.497 12.4928 51.5902 12.0731C51.6883 11.6534 51.8379 11.2825 52.0391 10.9604C52.2403 10.6335 52.4954 10.3797 52.8045 10.1991C53.1185 10.0137 53.4914 9.92094 53.9232 9.92094C54.0213 9.92094 54.1341 9.93314 54.2617 9.95754C54.3893 9.97706 54.4776 9.99902 54.5267 10.0234Z" fill="#FE9013"/>
<path d="M58.1549 17.1681L60.3702 10.0673H61.8274L58.6333 19.2105C58.5597 19.4057 58.4616 19.6156 58.3389 19.8401C58.2212 20.0695 58.0691 20.2866 57.8826 20.4916C57.6962 20.6966 57.4705 20.8625 57.2055 20.9894C56.9455 21.1212 56.634 21.187 56.2709 21.187C56.1629 21.187 56.0256 21.1724 55.8587 21.1431C55.6919 21.1138 55.5742 21.0894 55.5055 21.0699L55.4981 19.9719C55.5374 19.9767 55.5987 19.9816 55.6821 19.9865C55.7704 19.9963 55.8318 20.0011 55.8661 20.0011C56.1752 20.0011 56.4377 19.9597 56.6536 19.8767C56.8695 19.7986 57.051 19.6644 57.1982 19.4741C57.3503 19.2886 57.4803 19.0324 57.5882 18.7054L58.1549 17.1681ZM56.5285 10.0673L58.5965 16.2165L58.9498 17.644L57.9709 18.1418L55.0418 10.0673H56.5285Z" fill="#FE9013"/>
<path d="M13.8869 32.2501V32.0818C13.8869 31.5108 13.9703 30.9813 14.1372 30.4932C14.304 30.0003 14.5444 29.5733 14.8584 29.2122C15.1724 28.8462 15.5527 28.5631 15.9991 28.363C16.4456 28.158 16.9461 28.0556 17.5005 28.0556C18.0598 28.0556 18.5627 28.158 19.0092 28.363C19.4606 28.5631 19.8433 28.8462 20.1573 29.2122C20.4762 29.5733 20.7191 30.0003 20.8859 30.4932C21.0527 30.9813 21.1361 31.5108 21.1361 32.0818V32.2501C21.1361 32.8211 21.0527 33.3506 20.8859 33.8387C20.7191 34.3267 20.4762 34.7537 20.1573 35.1197C19.8433 35.4809 19.4631 35.7639 19.0166 35.9689C18.575 36.169 18.0745 36.269 17.5152 36.269C16.9559 36.269 16.453 36.169 16.0065 35.9689C15.56 35.7639 15.1773 35.4809 14.8584 35.1197C14.5444 34.7537 14.304 34.3267 14.1372 33.8387C13.9703 33.3506 13.8869 32.8211 13.8869 32.2501ZM15.2485 32.0818V32.2501C15.2485 32.6454 15.2951 33.0188 15.3883 33.3702C15.4815 33.7167 15.6213 34.0241 15.8078 34.2925C15.9991 34.561 16.2371 34.7732 16.5217 34.9294C16.8062 35.0807 17.1374 35.1563 17.5152 35.1563C17.8881 35.1563 18.2144 35.0807 18.494 34.9294C18.7786 34.7732 19.0141 34.561 19.2006 34.2925C19.387 34.0241 19.5268 33.7167 19.6201 33.3702C19.7182 33.0188 19.7673 32.6454 19.7673 32.2501V32.0818C19.7673 31.6914 19.7182 31.3229 19.6201 30.9764C19.5268 30.625 19.3846 30.3151 19.1932 30.0467C19.0068 29.7734 18.7713 29.5587 18.4867 29.4025C18.207 29.2463 17.8783 29.1683 17.5005 29.1683C17.1276 29.1683 16.7989 29.2463 16.5143 29.4025C16.2346 29.5587 15.9991 29.7734 15.8078 30.0467C15.6213 30.3151 15.4815 30.625 15.3883 30.9764C15.2951 31.3229 15.2485 31.6914 15.2485 32.0818Z" fill="#FE9013"/>
<path d="M24.2051 29.893V36.1226H22.8436V28.202H24.1315L24.2051 29.893ZM23.8813 31.8622L23.3146 31.8402C23.3195 31.2985 23.4004 30.7983 23.5574 30.3395C23.7145 29.8759 23.9352 29.4733 24.2198 29.1317C24.5044 28.79 24.8429 28.5265 25.2354 28.341C25.6329 28.1507 26.072 28.0556 26.5528 28.0556C26.9453 28.0556 27.2986 28.1092 27.6126 28.2166C27.9266 28.3191 28.194 28.485 28.4148 28.7144C28.6405 28.9438 28.8122 29.2415 28.93 29.6075C29.0477 29.9686 29.1066 30.4103 29.1066 30.9325V36.1226H27.7377V30.9178C27.7377 30.503 27.6764 30.1712 27.5537 29.9223C27.4311 29.6685 27.252 29.4855 27.0165 29.3732C26.781 29.2561 26.4915 29.1975 26.148 29.1975C25.8095 29.1975 25.5004 29.2683 25.2207 29.4098C24.946 29.5514 24.708 29.7466 24.5068 29.9955C24.3106 30.2444 24.156 30.5298 24.0432 30.8519C23.9352 31.1692 23.8813 31.5059 23.8813 31.8622Z" fill="#FE9013"/>
<path d="M32.6539 24.8785V36.1226H31.285V24.8785H32.6539Z" fill="#FE9013"/>
<path d="M36.319 28.202V36.1226H34.9501V28.202H36.319ZM34.8471 26.101C34.8471 25.8814 34.9133 25.6959 35.0458 25.5447C35.1832 25.3934 35.3843 25.3177 35.6493 25.3177C35.9093 25.3177 36.108 25.3934 36.2454 25.5447C36.3877 25.6959 36.4588 25.8814 36.4588 26.101C36.4588 26.3109 36.3877 26.4914 36.2454 26.6427C36.108 26.7891 35.9093 26.8623 35.6493 26.8623C35.3843 26.8623 35.1832 26.7891 35.0458 26.6427C34.9133 26.4914 34.8471 26.3109 34.8471 26.101Z" fill="#FE9013"/>
<path d="M39.8663 29.893V36.1226H38.5048V28.202H39.7927L39.8663 29.893ZM39.5425 31.8622L38.9758 31.8402C38.9807 31.2985 39.0617 30.7983 39.2187 30.3395C39.3757 29.8759 39.5965 29.4733 39.881 29.1317C40.1656 28.79 40.5042 28.5265 40.8967 28.341C41.2941 28.1507 41.7332 28.0556 42.214 28.0556C42.6065 28.0556 42.9598 28.1092 43.2738 28.2166C43.5878 28.3191 43.8552 28.485 44.076 28.7144C44.3017 28.9438 44.4734 29.2415 44.5912 29.6075C44.7089 29.9686 44.7678 30.4103 44.7678 30.9325V36.1226H43.3989V30.9178C43.3989 30.503 43.3376 30.1712 43.2149 29.9223C43.0923 29.6685 42.9132 29.4855 42.6777 29.3732C42.4422 29.2561 42.1527 29.1975 41.8093 29.1975C41.4707 29.1975 41.1616 29.2683 40.882 29.4098C40.6072 29.5514 40.3692 29.7466 40.1681 29.9955C39.9718 30.2444 39.8173 30.5298 39.7044 30.8519C39.5965 31.1692 39.5425 31.5059 39.5425 31.8622Z" fill="#FE9013"/>
<path d="M50.1403 36.269C49.5859 36.269 49.083 36.1763 48.6316 35.9909C48.1851 35.8005 47.8 35.5346 47.4762 35.1929C47.1572 34.8513 46.9119 34.4463 46.7402 33.9778C46.5685 33.5093 46.4826 32.9968 46.4826 32.4405V32.133C46.4826 31.4888 46.5783 30.9154 46.7696 30.4127C46.961 29.9052 47.221 29.4757 47.5498 29.1243C47.8785 28.773 48.2514 28.507 48.6684 28.3264C49.0855 28.1458 49.5172 28.0556 49.9637 28.0556C50.5328 28.0556 51.0235 28.1532 51.4356 28.3484C51.8527 28.5436 52.1937 28.8169 52.4586 29.1683C52.7236 29.5148 52.9198 29.9247 53.0474 30.3981C53.1749 30.8666 53.2387 31.379 53.2387 31.9354V32.543H47.2922V31.4376H51.8772V31.3351C51.8576 30.9837 51.784 30.6421 51.6564 30.3102C51.5338 29.9784 51.3375 29.7051 51.0676 29.4904C50.7978 29.2756 50.4298 29.1683 49.9637 29.1683C49.6546 29.1683 49.37 29.2341 49.11 29.3659C48.85 29.4928 48.6267 29.6831 48.4403 29.9369C48.2538 30.1907 48.1091 30.5006 48.006 30.8666C47.903 31.2326 47.8515 31.6548 47.8515 32.133V32.4405C47.8515 32.8163 47.903 33.1701 48.006 33.5019C48.114 33.8289 48.2685 34.1169 48.4697 34.3657C48.6758 34.6146 48.9235 34.8098 49.213 34.9514C49.5074 35.0929 49.841 35.1637 50.2139 35.1637C50.6948 35.1637 51.102 35.0661 51.4356 34.8709C51.7693 34.6756 52.0612 34.4145 52.3114 34.0876L53.1357 34.7391C52.964 34.9977 52.7456 35.2442 52.4807 35.4784C52.2157 35.7127 51.8895 35.903 51.5019 36.0494C51.1192 36.1958 50.6653 36.269 50.1403 36.269Z" fill="#FE9013"/>
<path fill-rule="evenodd" clip-rule="evenodd" d="M7.64599 17.988H6.22559V7.32951H10.1777C10.9872 7.32951 11.6717 7.4686 12.231 7.74678C12.7904 8.02495 13.2148 8.41049 13.5042 8.9034C13.7937 9.39143 13.9384 9.95022 13.9384 10.5798C13.9384 11.263 13.7937 11.8462 13.5042 12.3294C13.2148 12.8125 12.7904 13.181 12.231 13.4347C11.6717 13.6836 10.9872 13.8081 10.1777 13.8081H7.64599V17.988ZM7.64599 12.6588H10.1777C10.7321 12.6588 11.1811 12.5709 11.5245 12.3952C11.8679 12.2195 12.1182 11.9755 12.2752 11.6632C12.4371 11.3509 12.518 10.9946 12.518 10.5944C12.518 10.2284 12.4371 9.88434 12.2752 9.56224C12.1182 9.24014 11.8679 8.98149 11.5245 8.78627C11.1811 8.58618 10.7321 8.48614 10.1777 8.48614H7.64599V12.6588ZM15.3589 12.2781C15.3478 12.3072 15.3371 12.3364 15.3266 12.366C15.2244 12.6556 15.153 12.9679 15.1123 13.303C15.0853 13.5248 15.0718 13.7566 15.0718 13.9984V14.3059C15.0718 14.3402 15.0722 14.3744 15.0728 14.4083C15.0791 14.7362 15.1158 15.0486 15.183 15.3454C15.2217 15.5165 15.2705 15.6824 15.3294 15.8431C15.5011 16.3117 15.7465 16.7167 16.0654 17.0583C16.3892 17.4 16.7743 17.6659 17.2208 17.8563C17.6722 18.0417 18.1751 18.1344 18.7295 18.1344C19.2545 18.1344 19.7084 18.0612 20.0911 17.9148C20.4787 17.7684 20.805 17.5781 21.0699 17.3438C21.0819 17.3332 21.0939 17.3225 21.1057 17.3119C21.1931 17.233 21.2752 17.1528 21.3521 17.0711C21.4942 16.9203 21.6185 16.7647 21.7249 16.6045L20.9006 15.953C20.8715 15.9911 20.8417 16.0283 20.8114 16.0646C20.5818 16.3399 20.3196 16.5638 20.0248 16.7362C19.6912 16.9314 19.284 17.0291 18.8031 17.0291C18.4303 17.0291 18.0966 16.9583 17.8022 16.8168C17.5128 16.6752 17.265 16.48 17.0589 16.2311C16.8578 15.9822 16.7032 15.6943 16.5953 15.3673C16.593 15.36 16.5908 15.3527 16.5885 15.3454C16.4992 15.0503 16.4504 14.7379 16.442 14.4083H21.8279V13.8008C21.8279 13.6892 21.8254 13.5794 21.8202 13.4713C21.7998 13.0406 21.7386 12.638 21.6366 12.2635C21.6164 12.1887 21.5946 12.1155 21.571 12.0439C21.5501 11.9803 21.5278 11.9179 21.5041 11.8568C21.3858 11.5512 21.2337 11.2768 21.0478 11.0336C20.7829 10.6823 20.4419 10.409 20.0248 10.2138C19.6127 10.0185 19.1221 9.92094 18.5529 9.92094C18.1064 9.92094 17.6747 10.0112 17.2576 10.1918C16.8406 10.3724 16.4677 10.6383 16.139 10.9897C15.8102 11.3411 15.5502 11.7706 15.3589 12.2781ZM23.9033 11.1068V12.0439H24.3228V16.0262C24.3228 16.344 24.3649 16.7234 24.5505 17.0609L24.1462 17.2779L24.5547 17.0685C24.5643 17.0858 24.5743 17.103 24.5848 17.12C24.6885 17.29 24.8232 17.4457 24.9901 17.571C25.1141 17.6641 25.2558 17.7405 25.4159 17.7935C25.5214 17.8285 25.6282 17.8549 25.7359 17.8735C25.7724 17.8798 25.809 17.8852 25.8456 17.8897L25.8463 17.9942L26.7883 17.988L26.7434 17.8475C26.7584 17.8446 26.773 17.8417 26.7873 17.8389L26.781 16.8826C26.7172 16.8973 26.6215 16.9168 26.4939 16.9412C26.3713 16.9607 26.2535 16.9705 26.1407 16.9705C26.0355 16.9705 25.9351 16.96 25.8393 16.939L25.841 17.1961C25.808 17.1969 25.7729 17.1974 25.7359 17.1974C25.6949 17.1974 25.6554 17.1958 25.6172 17.1928C25.4646 17.1805 25.3344 17.1442 25.2192 17.09C25.1512 17.0579 25.0746 17.0005 24.997 16.8711C24.9913 16.8616 24.9855 16.8516 24.9798 16.8413C24.9141 16.7102 24.8461 16.4597 24.8454 16.0262C24.8454 16.0237 24.8454 16.0213 24.8454 16.0188V12.0439H25.2649V11.1068H26.7515V10.0673H25.2649V9.13033H24.8454V9.07909H25.2649V8.14208H23.9033V9.07909H24.3228V9.13033H23.9033V10.0673H22.4461V11.1068H23.9033ZM30.9612 16.868C30.6472 16.785 30.3651 16.6582 30.1149 16.4873C29.8695 16.3165 29.6757 16.1018 29.5334 15.8431C29.3912 15.5796 29.32 15.2648 29.32 14.8988H27.907C27.907 15.2368 27.9535 15.5491 28.0466 15.8358C28.1 16.0004 28.1688 16.1566 28.2529 16.3043C28.4884 16.7045 28.7999 17.0413 29.1875 17.3146C29.5801 17.5878 30.0143 17.7928 30.4902 17.9295C30.971 18.0661 31.4592 18.1344 31.9548 18.1344C32.519 18.1344 33.0293 18.0686 33.4855 17.9368C33.9468 17.8001 34.3417 17.6074 34.6704 17.3585C34.9992 17.1096 35.2519 16.8094 35.4285 16.4581C35.6051 16.1067 35.6934 15.7138 35.6934 15.2795C35.6934 14.8647 35.6223 14.4938 35.48 14.1668C35.3426 13.8349 35.1292 13.5397 34.8397 13.281C34.5551 13.0175 34.1921 12.7808 33.7505 12.5709C33.3089 12.3611 32.7839 12.1707 32.1755 11.9999C31.734 11.8779 31.3537 11.751 31.0348 11.6193C30.7208 11.4875 30.4608 11.3435 30.2547 11.1874C30.0535 11.0312 29.9039 10.8628 29.8058 10.6823C29.7125 10.4968 29.6659 10.2918 29.6659 10.0673C29.6659 9.73549 29.7444 9.44023 29.9014 9.18158C30.0633 8.92292 30.3087 8.71795 30.6374 8.56666C30.9661 8.41537 31.3832 8.33973 31.8885 8.33973C32.4233 8.33973 32.8649 8.43001 33.2132 8.61059C33.5616 8.78627 33.8216 9.03029 33.9934 9.34263C34.1651 9.65008 34.251 10.0039 34.251 10.4041H35.664C35.664 10.2904 35.6578 10.1782 35.6456 10.0673C35.6228 9.86238 35.5791 9.66229 35.5143 9.46707C35.4777 9.35673 35.4344 9.24795 35.3843 9.14072C35.3365 9.03823 35.2825 8.93716 35.2224 8.83752C34.928 8.34461 34.4987 7.94687 33.9345 7.64429C33.3752 7.33683 32.6932 7.18311 31.8885 7.18311C31.339 7.18311 30.841 7.25631 30.3945 7.40272C29.948 7.54913 29.5629 7.7541 29.2391 8.01763C28.9201 8.27629 28.6748 8.5813 28.5031 8.93268C28.3314 9.28406 28.2455 9.66716 28.2455 10.082C28.2455 10.4968 28.3265 10.8653 28.4884 11.1874C28.6503 11.5095 28.8833 11.795 29.1875 12.0439C29.4917 12.2927 29.8573 12.5148 30.2841 12.71C30.711 12.9003 31.1894 13.0736 31.7192 13.2298C32.2246 13.3762 32.6416 13.5201 32.9704 13.6617C33.304 13.8032 33.5641 13.952 33.7505 14.1082C33.9418 14.2644 34.0743 14.4401 34.1479 14.6353C34.2264 14.8256 34.2657 15.0452 34.2657 15.2941C34.2657 15.6406 34.1749 15.9408 33.9934 16.1945C33.8167 16.4483 33.5567 16.6435 33.2132 16.7802C32.8698 16.9168 32.4503 16.9851 31.9548 16.9851C31.6113 16.9851 31.2801 16.9461 30.9612 16.868ZM20.4664 13.303V13.2005C20.4505 12.9159 20.3992 12.6377 20.3125 12.366C20.2922 12.3022 20.2699 12.2387 20.2456 12.1756C20.123 11.8438 19.9267 11.5705 19.6569 11.3557C19.387 11.141 19.019 11.0336 18.5529 11.0336C18.2438 11.0336 17.9592 11.0995 17.6992 11.2313C17.4392 11.3582 17.2159 11.5485 17.0295 11.8023C16.9087 11.9666 16.8055 12.1545 16.7197 12.366C16.6731 12.481 16.6316 12.603 16.5953 12.732C16.5454 12.9092 16.5076 13.0995 16.4819 13.303H20.4664ZM36.3264 10.0673V11.1068H37.7836V16.0188C37.7836 16.5459 37.8645 16.9656 38.0264 17.2779C38.1932 17.5854 38.4165 17.805 38.6961 17.9368C38.9758 18.0686 39.2825 18.1344 39.6161 18.1344C39.8614 18.1344 40.0699 18.1174 40.2417 18.0832C40.4183 18.0539 40.5606 18.0222 40.6685 17.988L40.6612 16.8826C40.5974 16.8973 40.5017 16.9168 40.3741 16.9412C40.2515 16.9607 40.1337 16.9705 40.0209 16.9705C39.9157 16.9705 39.8153 16.96 39.7195 16.939C39.6767 16.9296 39.6349 16.9182 39.594 16.9046C39.4615 16.8607 39.3536 16.7704 39.2702 16.6338C39.1868 16.4971 39.1451 16.2946 39.1451 16.0262V11.1068H40.6317V10.0673H39.1451V8.14208H37.7836V10.0673H36.3264ZM52.9464 10.1235C52.8978 10.1467 52.8505 10.1719 52.8045 10.1991C52.5602 10.3418 52.3497 10.5302 52.1728 10.7644C52.1259 10.8265 52.0813 10.8919 52.0391 10.9604C52.0358 10.9658 52.0325 10.9711 52.0292 10.9764L52.0023 10.0673H50.6776V17.988H52.0391V12.3569C52.0632 12.3011 52.0892 12.2471 52.117 12.195C52.118 12.1932 52.119 12.1914 52.1199 12.1896C52.202 12.0371 52.3002 11.9007 52.4144 11.7803C52.5358 11.6526 52.6765 11.5454 52.8368 11.459C52.8832 11.4339 52.9314 11.4105 52.9811 11.3889C52.9957 11.3826 53.0104 11.3764 53.0253 11.3704C53.1917 11.3028 53.3758 11.2586 53.5775 11.2378C53.6672 11.2286 53.7603 11.224 53.8569 11.224C53.9845 11.224 54.0973 11.2289 54.1955 11.2386C54.2859 11.2429 54.3801 11.2547 54.4781 11.274C54.4917 11.2767 54.5055 11.2795 54.5193 11.2825L54.5267 10.0234C54.4776 9.99902 54.3893 9.97706 54.2617 9.95754C54.1613 9.93833 54.07 9.92669 53.9878 9.9226C53.9656 9.92149 53.9441 9.92094 53.9232 9.92094C53.5547 9.92094 53.2291 9.98847 52.9464 10.1235ZM57.8842 17.9026L57.5882 18.7054C57.5218 18.9067 57.447 19.0812 57.3638 19.2288C57.3119 19.321 57.2567 19.4028 57.1982 19.4741C57.051 19.6644 56.8695 19.7986 56.6536 19.8767C56.5517 19.9158 56.4395 19.9458 56.3168 19.9664C56.1796 19.9896 56.0293 20.0011 55.8661 20.0011C55.8318 20.0011 55.7704 19.9963 55.6821 19.9865C55.5987 19.9816 55.5374 19.9767 55.4981 19.9719L55.5055 21.0699C55.5742 21.0894 55.6919 21.1138 55.8587 21.1431C56.0256 21.1724 56.1629 21.187 56.2709 21.187C56.634 21.187 56.9455 21.1212 57.2055 20.9894C57.4705 20.8625 57.6962 20.6966 57.8826 20.4916C58.0691 20.2866 58.2212 20.0695 58.3389 19.8401C58.4616 19.6156 58.5597 19.4057 58.6333 19.2105L61.8274 10.0673H60.3702L58.5214 15.9933L56.5285 10.0673H55.0418L57.8842 17.9026ZM42.6924 16.9851C42.3784 16.6191 42.138 16.1921 41.9712 15.7041C41.8044 15.216 41.721 14.6865 41.721 14.1155V13.9472C41.721 13.3762 41.8044 12.8467 41.9712 12.3586C42.138 11.8657 42.3784 11.4387 42.6924 11.0776C43.0064 10.7115 43.3867 10.4285 43.8332 10.2284C44.2796 10.0234 44.7801 9.92094 45.3345 9.92094C45.8938 9.92094 46.3967 10.0234 46.8432 10.2284C47.2946 10.4285 47.6773 10.7115 47.9913 11.0776C48.3102 11.4387 48.5531 11.8657 48.7199 12.3586C48.8867 12.8467 48.9702 13.3762 48.9702 13.9472V14.1155C48.9702 14.6865 48.8867 15.216 48.7199 15.7041C48.5531 16.1921 48.3102 16.6191 47.9913 16.9851C47.6773 17.3463 47.2971 17.6293 46.8506 17.8343C46.409 18.0344 45.9086 18.1344 45.3492 18.1344C44.7899 18.1344 44.287 18.0344 43.8405 17.8343C43.394 17.6293 43.0113 17.3463 42.6924 16.9851ZM47.0272 11.9121C46.8408 11.6388 46.6053 11.4241 46.3207 11.2679C46.041 11.1117 45.7123 11.0336 45.3345 11.0336C44.9616 11.0336 44.6329 11.1117 44.3483 11.2679C44.0687 11.4241 43.8332 11.6388 43.6418 11.9121C43.4554 12.1805 43.3155 12.4904 43.2223 12.8418C43.1291 13.1883 43.0825 13.5567 43.0825 13.9472V14.1155C43.0825 14.5108 43.1291 14.8842 43.2223 15.2356C43.3155 15.5821 43.4554 15.8895 43.6418 16.1579C43.8332 16.4263 44.0711 16.6386 44.3557 16.7948C44.6403 16.9461 44.9714 17.0217 45.3492 17.0217C45.7221 17.0217 46.0484 16.9461 46.3281 16.7948C46.6126 16.6386 46.8481 16.4263 47.0346 16.1579C47.221 15.8895 47.3609 15.5821 47.4541 15.2356C47.5522 14.8842 47.6013 14.5108 47.6013 14.1155V13.9472C47.6013 13.5567 47.5522 13.1883 47.4541 12.8418C47.3609 12.4904 47.2186 12.1805 47.0272 11.9121ZM14.8584 35.1197C14.5444 34.7537 14.304 34.3267 14.1372 33.8387C13.9703 33.3506 13.8869 32.8211 13.8869 32.2501V32.0818C13.8869 31.5108 13.9703 30.9813 14.1372 30.4932C14.304 30.0003 14.5444 29.5733 14.8584 29.2122C15.1724 28.8462 15.5527 28.5631 15.9991 28.363C16.4456 28.158 16.9461 28.0556 17.5005 28.0556C18.0598 28.0556 18.5627 28.158 19.0092 28.363C19.4606 28.5631 19.8433 28.8462 20.1573 29.2122C20.4762 29.5733 20.7191 30.0003 20.8859 30.4932C21.0527 30.9813 21.1361 31.5108 21.1361 32.0818V32.2501C21.1361 32.8211 21.0527 33.3506 20.8859 33.8387C20.7191 34.3267 20.4762 34.7537 20.1573 35.1197C19.8433 35.4809 19.4631 35.7639 19.0166 35.9689C18.575 36.169 18.0745 36.269 17.5152 36.269C16.9559 36.269 16.453 36.169 16.0065 35.9689C15.56 35.7639 15.1773 35.4809 14.8584 35.1197ZM19.1932 30.0467C19.0068 29.7734 18.7713 29.5587 18.4867 29.4025C18.207 29.2463 17.8783 29.1683 17.5005 29.1683C17.1276 29.1683 16.7989 29.2463 16.5143 29.4025C16.2346 29.5587 15.9991 29.7734 15.8078 30.0467C15.6213 30.3151 15.4815 30.625 15.3883 30.9764C15.2951 31.3229 15.2485 31.6914 15.2485 32.0818V32.2501C15.2485 32.6454 15.2951 33.0188 15.3883 33.3702C15.4815 33.7167 15.6213 34.0241 15.8078 34.2925C15.9991 34.561 16.2371 34.7732 16.5217 34.9294C16.8062 35.0807 17.1374 35.1563 17.5152 35.1563C17.8881 35.1563 18.2144 35.0807 18.494 34.9294C18.7786 34.7732 19.0141 34.561 19.2006 34.2925C19.387 34.0241 19.5268 33.7167 19.6201 33.3702C19.7182 33.0188 19.7673 32.6454 19.7673 32.2501V32.0818C19.7673 31.6914 19.7182 31.3229 19.6201 30.9764C19.5268 30.625 19.3846 30.3151 19.1932 30.0467ZM22.8436 28.202V36.1226H24.2051V30.4701C24.2914 30.2994 24.392 30.1411 24.5068 29.9955C24.5353 29.9602 24.5645 29.9261 24.5945 29.893C24.5998 29.8871 24.6051 29.8813 24.6105 29.8755C24.6857 29.794 24.7656 29.7192 24.8501 29.6511C24.9381 29.58 25.0311 29.5163 25.1291 29.4598C25.1592 29.4424 25.1897 29.4258 25.2207 29.4098C25.2686 29.3856 25.3172 29.3635 25.3668 29.3434C25.607 29.2462 25.8674 29.1975 26.148 29.1975C26.4915 29.1975 26.781 29.2561 27.0165 29.3732C27.252 29.4855 27.4311 29.6685 27.5537 29.9223C27.6764 30.1712 27.7377 30.503 27.7377 30.9178V36.1226H29.1066V30.9325C29.1066 30.4103 29.0477 29.9686 28.93 29.6075C28.8122 29.2415 28.6405 28.9438 28.4148 28.7144C28.194 28.485 27.9266 28.3191 27.6126 28.2166C27.2986 28.1092 26.9453 28.0556 26.5528 28.0556C26.072 28.0556 25.6329 28.1507 25.2354 28.341C25.184 28.3654 25.1334 28.391 25.0838 28.418C25.0274 28.4487 24.9722 28.4812 24.9182 28.5153C24.879 28.5401 24.8405 28.5658 24.8026 28.5924C24.8008 28.5937 24.799 28.595 24.7971 28.5962C24.5848 28.746 24.3924 28.9245 24.2198 29.1317C24.2045 29.1501 24.1893 29.1686 24.1744 29.1874L24.1315 28.202H22.8436ZM35.0458 26.6427C34.9133 26.4914 34.8471 26.3109 34.8471 26.101C34.8471 25.8814 34.9133 25.6959 35.0458 25.5447C35.1832 25.3934 35.3843 25.3177 35.6493 25.3177C35.9093 25.3177 36.108 25.3934 36.2454 25.5447C36.3877 25.6959 36.4588 25.8814 36.4588 26.101C36.4588 26.3109 36.3877 26.4914 36.2454 26.6427C36.108 26.7891 35.9093 26.8623 35.6493 26.8623C35.3843 26.8623 35.1832 26.7891 35.0458 26.6427ZM35.5566 26.0036C35.5512 26.0095 35.5386 26.026 35.5284 26.0519C35.5189 26.076 35.5171 26.0939 35.5169 26.0994C35.5169 26.0998 35.517 26.1003 35.5171 26.101C35.5177 26.1054 35.5196 26.1162 35.5253 26.1313C35.5318 26.148 35.5399 26.1619 35.5471 26.172C35.5479 26.1731 35.5487 26.1741 35.5494 26.1751L35.6463 26.0852L35.6469 26.0847L35.5566 26.0036ZM35.6576 26.0747L35.5652 25.9947C35.5799 25.9802 35.5963 25.967 35.6136 25.9557C35.6254 25.948 35.6363 25.942 35.6461 25.9373C35.6472 25.9378 35.6482 25.9383 35.6493 25.9388C35.6573 25.9429 35.6661 25.9479 35.6754 25.9539C35.6965 25.9677 35.7167 25.9845 35.7345 26.0034L35.6576 26.0747ZM35.668 26.1037L35.5658 26.1922C35.5768 26.2024 35.5889 26.2119 35.6018 26.2206C35.618 26.2316 35.6333 26.2396 35.6463 26.2453C35.6473 26.2449 35.6483 26.2444 35.6493 26.244C35.6605 26.2387 35.6734 26.2317 35.6872 26.2224C35.7075 26.2088 35.7261 26.1929 35.7422 26.1756C35.7424 26.1754 35.742 26.1758 35.7422 26.1756C35.7429 26.1748 35.7442 26.1735 35.7449 26.1727L35.668 26.1037ZM35.6795 26.0937L35.7562 26.0273C35.7624 26.0344 35.7735 26.0504 35.7817 26.0726C35.7858 26.0838 35.7876 26.0924 35.7885 26.0974C35.7882 26.0984 35.7879 26.0996 35.7875 26.101C35.7868 26.1037 35.7858 26.107 35.7844 26.1109C35.7812 26.1199 35.7768 26.1295 35.7713 26.1388C35.7675 26.1453 35.7637 26.1506 35.7604 26.1549C35.7589 26.1569 35.7575 26.1586 35.7562 26.1601L35.6795 26.0937ZM40.1681 29.9955C40.1966 29.9602 40.2258 29.9261 40.2557 29.893C40.261 29.8871 40.2663 29.8813 40.2717 29.8755C40.347 29.794 40.4269 29.7192 40.5113 29.6511C40.5994 29.58 40.6924 29.5163 40.7904 29.4598C40.8204 29.4424 40.851 29.4258 40.882 29.4098C40.9298 29.3856 40.9785 29.3635 41.028 29.3434C41.2682 29.2462 41.5286 29.1975 41.8093 29.1975C42.1527 29.1975 42.4422 29.2561 42.6777 29.3732C42.9132 29.4855 43.0923 29.6685 43.2149 29.9223C43.3376 30.1712 43.3989 30.503 43.3989 30.9178V36.1226H44.7678V30.9325C44.7678 30.4103 44.7089 29.9686 44.5912 29.6075C44.4734 29.2415 44.3017 28.9438 44.076 28.7144C43.8552 28.485 43.5878 28.3191 43.2738 28.2166C42.9598 28.1092 42.6065 28.0556 42.214 28.0556C41.7332 28.0556 41.2941 28.1507 40.8967 28.341C40.8452 28.3654 40.7947 28.391 40.745 28.418C40.6886 28.4487 40.6335 28.4812 40.5795 28.5153C40.5403 28.5401 40.5017 28.5658 40.4638 28.5924C40.462 28.5937 40.4602 28.595 40.4584 28.5962C40.2461 28.746 40.0536 28.9245 39.881 29.1317C39.8657 29.15 39.8506 29.1686 39.8356 29.1874L39.7927 28.202H38.5048V36.1226H39.8663V30.4701C39.9526 30.2994 40.0532 30.1411 40.1681 29.9955ZM53.0474 30.3981C52.9198 29.9247 52.7236 29.5148 52.4586 29.1683C52.1937 28.8169 51.8527 28.5436 51.4356 28.3484C51.0235 28.1532 50.5328 28.0556 49.9637 28.0556C49.5172 28.0556 49.0855 28.1458 48.6684 28.3264C48.2514 28.507 47.8785 28.773 47.5498 29.1243C47.221 29.4757 46.961 29.9052 46.7696 30.4127C46.7586 30.4418 46.7478 30.471 46.7374 30.5006C46.6352 30.7902 46.5638 31.1025 46.523 31.4376C46.4961 31.6594 46.4826 31.8912 46.4826 32.133V32.4405C46.4826 32.4748 46.4829 32.509 46.4836 32.543C46.4899 32.8709 46.5266 33.1832 46.5938 33.48C46.6325 33.6511 46.6813 33.817 46.7402 33.9778C46.9119 34.4463 47.1572 34.8513 47.4762 35.1929C47.8 35.5346 48.1851 35.8005 48.6316 35.9909C49.083 36.1763 49.5859 36.269 50.1403 36.269C50.6653 36.269 51.1192 36.1958 51.5019 36.0494C51.8895 35.903 52.2157 35.7127 52.4807 35.4784C52.4927 35.4678 52.5046 35.4572 52.5165 35.4465C52.6038 35.3676 52.686 35.2874 52.7629 35.2057C52.905 35.0549 53.0293 34.8993 53.1357 34.7391L52.3115 34.0876C52.2823 34.1258 52.2525 34.1629 52.2222 34.1993C51.9925 34.4745 51.7304 34.6984 51.4356 34.8709C51.102 35.0661 50.6948 35.1637 50.2139 35.1637C49.841 35.1637 49.5074 35.0929 49.213 34.9514C48.9235 34.8098 48.6758 34.6146 48.4697 34.3657C48.2685 34.1169 48.114 33.8289 48.006 33.5019C48.0038 33.4946 48.0015 33.4873 47.9993 33.48C47.91 33.1849 47.8611 32.8726 47.8528 32.543H53.2387V31.9354C53.2387 31.8238 53.2362 31.714 53.231 31.6059C53.2106 31.1753 53.1494 30.7726 53.0474 30.3981ZM51.8772 31.4376V31.3351C51.8613 31.0505 51.81 30.7723 51.7233 30.5006C51.703 30.4368 51.6807 30.3733 51.6564 30.3102C51.5337 29.9784 51.3375 29.7051 51.0676 29.4904C50.7978 29.2756 50.4298 29.1683 49.9637 29.1683C49.6546 29.1683 49.37 29.2341 49.11 29.3659C48.85 29.4928 48.6267 29.6831 48.4403 29.9369C48.3195 30.1012 48.2163 30.2891 48.1305 30.5006C48.0838 30.6156 48.0424 30.7376 48.006 30.8666C47.9562 31.0438 47.9184 31.2341 47.8926 31.4376H51.8772ZM32.6539 24.8785H31.285V36.1226H32.6539V24.8785ZM36.319 28.202H34.9501V36.1226H36.319V28.202Z" fill="#FE9013"/>
<path fill-rule="evenodd" clip-rule="evenodd" d="M17.1549 34.8498C16.9566 34.0588 16.3652 33.1299 15.9046 32.1267C16.2994 32.9866 16.6942 33.8465 17.1549 34.8498ZM18.2673 34.7593C17.6101 33.6871 17.2144 32.4662 16.8187 31.2453C16.4906 30.8897 16.2292 31.0383 15.9677 31.187C15.5107 31.6277 15.0527 31.7074 15.5774 32.132C16.2345 33.2042 16.6951 34.2075 17.025 35.2851C17.1557 35.2107 17.4172 35.0621 17.5479 34.9877C17.8093 34.839 17.8742 34.6214 18.2673 34.7593ZM15.444 31.1234C15.2457 30.3325 14.6544 29.4035 14.1938 28.4003C14.5886 29.2602 14.9834 30.1201 15.444 31.1234ZM13.6674 27.2537C13.5349 26.6061 12.8777 25.5339 12.4829 24.6739C12.8777 25.5339 13.2067 26.2505 13.7332 27.397C13.7332 27.397 13.7332 27.397 13.6674 27.2537ZM14.7798 27.1633C14.1884 26.2344 13.7927 25.0135 13.3312 23.6492C13.0689 23.4369 12.8075 23.5856 12.546 23.7343C12.089 24.175 11.631 24.2547 12.1557 24.6793C12.747 25.6082 13.2734 26.7548 13.6033 27.8324C13.734 27.758 13.9955 27.6093 14.1262 27.535C14.3218 27.243 14.4525 27.1687 14.7798 27.1633ZM11.9565 23.5274C11.824 22.8797 11.1669 21.8075 10.7721 20.9476C11.1669 21.8075 11.4959 22.5241 12.0223 23.6707L11.9565 23.5274ZM13.0689 23.4369C12.4776 22.508 12.0819 21.2871 11.6204 19.9229C11.3581 19.7106 11.0966 19.8593 10.8352 20.0079C10.3781 20.4486 9.8544 20.385 10.4448 20.9529C11.0362 21.8818 11.5626 23.0284 11.8925 24.106C12.0232 24.0317 12.2846 23.883 12.3495 23.6653C12.611 23.5166 12.7417 23.4423 13.0689 23.4369ZM12.8173 27.5564C12.2935 27.4928 11.9005 27.3549 11.3767 27.2912C11.9005 27.3549 12.2277 27.3495 12.8173 27.5564C12.0312 27.2805 11.4417 27.0736 10.7214 26.941C11.3109 27.1479 11.8347 27.2115 12.6207 27.4875C11.7689 27.0682 11.0486 26.9356 10.3933 26.5853C10.9828 26.7923 11.5724 26.9992 12.4242 27.4185C11.7031 26.9249 10.917 26.649 10.131 26.373C10.917 26.649 11.7689 27.0682 12.8173 27.5564C13.0138 27.6254 13.0138 27.6254 12.8173 27.5564ZM12.5558 27.7051C12.5558 27.7051 12.4251 27.7795 12.3593 27.6361C11.3776 27.6522 10.5267 27.5939 9.74148 27.679C10.4617 27.8116 11.2469 27.7266 12.0321 27.6415C11.2469 27.7266 10.5925 27.7373 10.0038 27.8913C10.6583 27.8806 11.4434 27.7955 12.2286 27.7105C11.5741 27.7212 10.9855 27.8752 10.3968 28.0293C11.182 27.9442 11.7707 27.7902 12.4251 27.7795C11.9672 27.8592 11.5092 27.9389 11.0513 28.0186C11.5092 27.9389 11.9672 27.8592 12.4251 27.7795C12.5558 27.7051 12.5558 27.7051 12.5558 27.7051ZM12.9506 28.565C12.6892 28.7137 12.4936 29.0057 12.1015 29.2288C12.3629 29.0801 12.5585 28.7881 12.9506 28.565C12.5585 28.7881 12.1015 29.2288 11.7093 29.4518C12.1015 29.2288 12.4278 28.8624 12.8199 28.6394C12.2971 28.9367 11.7742 29.2341 11.3172 29.6748C11.6435 29.3085 12.1664 29.0111 12.6892 28.7137C12.1664 29.0111 11.6435 29.3085 11.1206 29.6058C11.6435 29.3085 12.2313 28.7934 12.8848 28.4217C13.0156 28.3474 13.0814 28.4907 12.9506 28.565ZM13.0164 28.7084C12.8857 28.7827 12.8857 28.7827 12.8857 28.7827C12.3638 29.4411 11.9725 30.0251 11.712 30.5347C11.9725 30.0251 12.3638 29.4411 12.6901 29.0747C12.4296 29.5844 12.1032 29.9507 11.8427 30.4604C12.1032 29.9507 12.4945 29.3667 12.755 28.857C12.4945 29.3667 12.3647 29.802 12.169 30.094C12.3647 29.802 12.6252 29.2924 12.8857 28.7827C12.7559 29.218 12.5603 29.51 12.4954 29.7277C12.691 29.4357 12.6901 29.0747 12.8857 28.7827L13.0164 28.7084ZM13.3428 28.342C13.4735 28.2677 13.4735 28.2677 13.6042 28.1933C13.67 28.3367 13.67 28.3367 13.8665 28.4056C14.5237 29.4779 14.9843 30.4811 15.3142 31.5587C15.4449 31.4844 15.7063 31.3357 15.837 31.2614C16.0327 30.9694 16.1634 30.895 16.4906 30.8897C15.8993 29.9608 15.5036 28.7398 15.0421 27.3756C14.7798 27.1633 14.5183 27.312 14.2569 27.4607C13.9306 27.827 13.6033 27.8324 13.5384 28.05C13.4726 27.9067 13.2761 27.8377 13.2103 27.6944C13.1445 27.5511 12.948 27.4821 12.6199 27.1265C11.768 26.7072 10.3924 26.2244 9.67212 26.0918C9.86952 26.5217 10.9179 27.0099 11.7698 27.4292C10.9188 27.3709 9.80639 27.4613 9.15282 27.833C9.80817 28.1833 12.2295 28.0715 12.9489 27.8431C12.9489 27.8431 13.0796 27.7687 13.1454 27.9121C13.3419 27.981 13.5384 28.05 13.6042 28.1933C13.4735 28.2677 13.3428 28.342 13.1463 28.273C13.1463 28.273 13.0156 28.3474 12.7541 28.4961C12.0348 28.7244 11.1856 29.3881 10.7285 29.8288C11.1215 29.9668 11.9058 29.5208 12.4936 29.0057C12.1023 29.5897 11.6462 30.3914 11.3856 30.9011C11.9743 30.747 13.0173 29.0694 13.0814 28.4907C13.2121 28.4164 13.2121 28.4164 13.3428 28.342Z" fill="#FE9013"/>
<path d="M1 3C1 1.89543 1.89543 1 3 1H64C65.1046 1 66 1.89543 66 3V40C66 41.1046 65.1046 42 64 42H3C1.89543 42 1 41.1046 1 40V3Z" stroke="#FE9013" stroke-width="0.7"/>
</svg>
