<svg width="127" height="25" viewBox="0 0 127 25" fill="none" xmlns="http://www.w3.org/2000/svg">
<path d="M2.43764 14.708V20.0001H0.655029V6.48201H5.64076C7.12008 6.48201 8.27754 6.85958 9.11314 7.61471C9.95492 8.36984 10.3758 9.36947 10.3758 10.6136C10.3758 11.9258 9.96421 12.9378 9.14099 13.6496C8.32396 14.3552 7.15103 14.708 5.62219 14.708H2.43764ZM2.43764 13.2504H5.64076C6.59396 13.2504 7.32434 13.0275 7.83189 12.5819C8.33943 12.13 8.59321 11.4801 8.59321 10.6321C8.59321 9.8275 8.33943 9.18378 7.83189 8.70099C7.32434 8.2182 6.62801 7.96752 5.74289 7.94895H2.43764V13.2504Z" fill="white"/>
<path d="M16.42 20.1858C15.0583 20.1858 13.9503 19.7402 13.0962 18.8489C12.242 17.9514 11.8149 16.7537 11.8149 15.2558V14.9401C11.8149 13.9436 12.0037 13.0554 12.3813 12.2755C12.765 11.4894 13.2973 10.8766 13.9782 10.4372C14.6652 9.99152 15.408 9.7687 16.2064 9.7687C17.5124 9.7687 18.5275 10.1989 19.2517 11.0592C19.9759 11.9196 20.338 13.1513 20.338 14.7544V15.4693H13.5325C13.5573 16.4597 13.8451 17.2612 14.396 17.874C14.953 18.4806 15.6587 18.7839 16.5128 18.7839C17.1194 18.7839 17.6331 18.6601 18.054 18.4125C18.4749 18.1649 18.8432 17.8369 19.1589 17.4283L20.208 18.2454C19.3662 19.539 18.1036 20.1858 16.42 20.1858ZM16.2064 11.1799C15.5132 11.1799 14.9314 11.4337 14.461 11.9413C13.9906 12.4426 13.6996 13.1482 13.5882 14.0581H18.6204V13.9281C18.5709 13.0554 18.3357 12.3807 17.9148 11.9041C17.4939 11.4213 16.9244 11.1799 16.2064 11.1799Z" fill="white"/>
<path d="M24.6645 7.52187V9.95438H26.54V11.2821H24.6645V17.5119C24.6645 17.9142 24.7481 18.2175 24.9152 18.4218C25.0823 18.6198 25.3671 18.7189 25.7694 18.7189C25.9675 18.7189 26.2398 18.6817 26.5864 18.6075V20.0001C26.1346 20.1239 25.6951 20.1858 25.268 20.1858C24.5005 20.1858 23.9218 19.9537 23.5318 19.4895C23.1419 19.0253 22.9469 18.3661 22.9469 17.5119V11.2821H21.1179V9.95438H22.9469V7.52187H24.6645Z" fill="white"/>
<path d="M32.807 13.9745C31.2781 13.5351 30.164 12.9966 29.4646 12.359C28.7713 11.7153 28.4247 10.9231 28.4247 9.98224C28.4247 8.91762 28.8487 8.0387 29.6967 7.34546C30.5509 6.64604 31.6588 6.29632 33.0205 6.29632C33.949 6.29632 34.7753 6.47582 35.4995 6.83482C36.2298 7.19382 36.7931 7.68899 37.1892 8.32033C37.5915 8.95167 37.7927 9.64181 37.7927 10.3908H36.0008C36.0008 9.57372 35.7409 8.9331 35.2209 8.46888C34.701 7.99847 33.9675 7.76326 33.0205 7.76326C32.1416 7.76326 31.4545 7.95823 30.9594 8.34818C30.4704 8.73194 30.2259 9.26734 30.2259 9.95438C30.2259 10.5053 30.458 10.9726 30.9222 11.3563C31.3926 11.7339 32.188 12.0805 33.3083 12.3962C34.4348 12.7119 35.3138 13.0616 35.9451 13.4453C36.5826 13.8229 37.053 14.2655 37.3563 14.773C37.6658 15.2805 37.8206 15.8778 37.8206 16.5649C37.8206 17.6605 37.3935 18.5394 36.5393 19.2017C35.6851 19.8578 34.5432 20.1858 33.1134 20.1858C32.1849 20.1858 31.3184 20.0094 30.5137 19.6566C29.7091 19.2976 29.087 18.8086 28.6476 18.1897C28.2143 17.5707 27.9976 16.8682 27.9976 16.0821H29.7895C29.7895 16.8991 30.0897 17.5459 30.6901 18.0225C31.2967 18.493 32.1045 18.7282 33.1134 18.7282C34.0542 18.7282 34.7753 18.5363 35.2766 18.1525C35.778 17.7688 36.0287 17.2457 36.0287 16.5835C36.0287 15.9212 35.7966 15.4105 35.3323 15.0515C34.8681 14.6863 34.0263 14.3273 32.807 13.9745Z" fill="white"/>
<path d="M42.175 7.52187V9.95438H44.0504V11.2821H42.175V17.5119C42.175 17.9142 42.2585 18.2175 42.4256 18.4218C42.5928 18.6198 42.8775 18.7189 43.2798 18.7189C43.4779 18.7189 43.7502 18.6817 44.0968 18.6075V20.0001C43.645 20.1239 43.2055 20.1858 42.7784 20.1858C42.0109 20.1858 41.4322 19.9537 41.0423 19.4895C40.6523 19.0253 40.4573 18.3661 40.4573 17.5119V11.2821H38.6283V9.95438H40.4573V7.52187H42.175Z" fill="white"/>
<path d="M45.4245 14.8844C45.4245 13.9003 45.6164 13.0151 46.0001 12.2291C46.3901 11.443 46.9286 10.8364 47.6156 10.4093C48.3089 9.98224 49.098 9.7687 49.9832 9.7687C51.3511 9.7687 52.4559 10.2422 53.2977 11.1892C54.1457 12.1362 54.5697 13.3958 54.5697 14.968V15.0887C54.5697 16.0666 54.3809 16.9456 54.0033 17.7254C53.6319 18.4991 53.0965 19.1026 52.3971 19.5359C51.7039 19.9692 50.9054 20.1858 50.0017 20.1858C48.64 20.1858 47.5352 19.7123 46.6872 18.7653C45.8454 17.8183 45.4245 16.5649 45.4245 15.0051V14.8844ZM47.1514 15.0887C47.1514 16.2028 47.4083 17.0972 47.922 17.7719C48.4419 18.4465 49.1352 18.7839 50.0017 18.7839C50.8745 18.7839 51.5677 18.4434 52.0814 17.7626C52.5952 17.0755 52.852 16.1161 52.852 14.8844C52.852 13.7827 52.589 12.8914 52.0629 12.2105C51.5429 11.5235 50.8497 11.1799 49.9832 11.1799C49.1352 11.1799 48.4512 11.5173 47.9313 12.1919C47.4114 12.8666 47.1514 13.8322 47.1514 15.0887Z" fill="white"/>
<path d="M61.5794 11.4956C61.3194 11.4523 61.0378 11.4306 60.7345 11.4306C59.608 11.4306 58.8436 11.9103 58.4413 12.8697V20.0001H56.7236V9.95438H58.3948L58.4227 11.1149C58.9859 10.2174 59.7844 9.7687 60.8181 9.7687C61.1523 9.7687 61.4061 9.81202 61.5794 9.89868V11.4956Z" fill="white"/>
<path d="M66.6208 17.484L68.9605 9.95438H70.7988L66.7601 21.5506C66.135 23.2218 65.1415 24.0574 63.7798 24.0574L63.4548 24.0296L62.8142 23.9089V22.5162L63.2784 22.5533C63.8603 22.5533 64.3121 22.4357 64.634 22.2005C64.962 21.9653 65.2313 21.5352 65.4417 20.91L65.8224 19.8887L62.2386 9.95438H64.114L66.6208 17.484Z" fill="white"/>
<path d="M76.6016 14.8844C76.6016 13.9003 76.7935 13.0151 77.1772 12.2291C77.5672 11.443 78.1057 10.8364 78.7927 10.4093C79.4859 9.98224 80.2751 9.7687 81.1602 9.7687C82.5281 9.7687 83.633 10.2422 84.4748 11.1892C85.3227 12.1362 85.7467 13.3958 85.7467 14.968V15.0887C85.7467 16.0666 85.5579 16.9456 85.1804 17.7254C84.809 18.4991 84.2736 19.1026 83.5742 19.5359C82.8809 19.9692 82.0825 20.1858 81.1788 20.1858C79.8171 20.1858 78.7122 19.7123 77.8643 18.7653C77.0225 17.8183 76.6016 16.5649 76.6016 15.0051V14.8844ZM78.3285 15.0887C78.3285 16.2028 78.5854 17.0972 79.0991 17.7719C79.619 18.4465 80.3123 18.7839 81.1788 18.7839C82.0515 18.7839 82.7448 18.4434 83.2585 17.7626C83.7722 17.0755 84.0291 16.1161 84.0291 14.8844C84.0291 13.7827 83.7661 12.8914 83.2399 12.2105C82.72 11.5235 82.0268 11.1799 81.1602 11.1799C80.3123 11.1799 79.6283 11.5173 79.1084 12.1919C78.5884 12.8666 78.3285 13.8322 78.3285 15.0887Z" fill="white"/>
<path d="M89.5255 9.95438L89.5812 11.2171C90.3487 10.2515 91.3514 9.7687 92.5893 9.7687C94.7124 9.7687 95.7832 10.9664 95.8018 13.3618V20.0001H94.0841V13.3525C94.078 12.6283 93.9108 12.0929 93.5828 11.7463C93.2609 11.3997 92.7565 11.2263 92.0694 11.2263C91.5124 11.2263 91.0234 11.3749 90.6025 11.672C90.1816 11.9691 89.8535 12.359 89.6183 12.8418V20.0001H87.9007V9.95438H89.5255Z" fill="white"/>
<path d="M100.258 20.0001H98.5407V5.73926H100.258V20.0001Z" fill="white"/>
<path d="M104.882 20.0001H103.164V9.95438H104.882V20.0001ZM103.025 7.28976C103.025 7.01122 103.109 6.77602 103.276 6.58414C103.449 6.39226 103.703 6.29632 104.037 6.29632C104.371 6.29632 104.625 6.39226 104.798 6.58414C104.972 6.77602 105.058 7.01122 105.058 7.28976C105.058 7.56829 104.972 7.8004 104.798 7.98609C104.625 8.17178 104.371 8.26462 104.037 8.26462C103.703 8.26462 103.449 8.17178 103.276 7.98609C103.109 7.8004 103.025 7.56829 103.025 7.28976Z" fill="white"/>
<path d="M109.264 9.95438L109.32 11.2171C110.087 10.2515 111.09 9.7687 112.328 9.7687C114.451 9.7687 115.522 10.9664 115.54 13.3618V20.0001H113.823V13.3525C113.817 12.6283 113.65 12.0929 113.321 11.7463C113 11.3997 112.495 11.2263 111.808 11.2263C111.251 11.2263 110.762 11.3749 110.341 11.672C109.92 11.9691 109.592 12.359 109.357 12.8418V20.0001H107.639V9.95438H109.264Z" fill="white"/>
<path d="M122.299 20.1858C120.938 20.1858 119.83 19.7402 118.976 18.8489C118.122 17.9514 117.694 16.7537 117.694 15.2558V14.9401C117.694 13.9436 117.883 13.0554 118.261 12.2755C118.645 11.4894 119.177 10.8766 119.858 10.4372C120.545 9.99152 121.287 9.7687 122.086 9.7687C123.392 9.7687 124.407 10.1989 125.131 11.0592C125.855 11.9196 126.218 13.1513 126.218 14.7544V15.4693H119.412C119.437 16.4597 119.725 17.2612 120.275 17.874C120.833 18.4806 121.538 18.7839 122.392 18.7839C122.999 18.7839 123.513 18.6601 123.934 18.4125C124.354 18.1649 124.723 17.8369 125.038 17.4283L126.088 18.2454C125.246 19.539 123.983 20.1858 122.299 20.1858ZM122.086 11.1799C121.393 11.1799 120.811 11.4337 120.34 11.9413C119.87 12.4426 119.579 13.1482 119.468 14.0581H124.5V13.9281C124.45 13.0554 124.215 12.3807 123.794 11.9041C123.373 11.4213 122.804 11.1799 122.086 11.1799Z" fill="white"/>
<path fill-rule="evenodd" clip-rule="evenodd" d="M9.11314 7.61471C8.27754 6.85958 7.12008 6.48201 5.64076 6.48201H0.655029V20.0001H2.43764V14.708H5.62219C7.15103 14.708 8.32396 14.3552 9.14099 13.6496C9.96421 12.9378 10.3758 11.9258 10.3758 10.6136C10.3758 9.36947 9.95492 8.36984 9.11314 7.61471ZM19.9295 12.2241C19.7577 11.7803 19.5318 11.392 19.2517 11.0592C18.5275 10.1989 17.5124 9.7687 16.2064 9.7687C15.408 9.7687 14.6652 9.99152 13.9782 10.4372C13.2973 10.8766 12.765 11.4894 12.3813 12.2755C12.0037 13.0554 11.8149 13.9436 11.8149 14.9401V15.2558C11.8149 16.7537 12.242 17.9514 13.0962 18.8489C13.9503 19.7402 15.0583 20.1858 16.42 20.1858C17.6499 20.1858 18.6551 19.8406 19.4358 19.1503C19.5323 19.0649 19.6254 18.9743 19.7151 18.8783C19.8929 18.6881 20.0572 18.4771 20.208 18.2454L19.1589 17.4283C19.1521 17.4371 19.1453 17.4458 19.1385 17.4545C18.8274 17.8509 18.4659 18.1702 18.054 18.4125C17.6331 18.6601 17.1194 18.7839 16.5128 18.7839C15.6587 18.7839 14.953 18.4806 14.396 17.874C14.0854 17.5286 13.8585 17.1231 13.7151 16.6577C13.6042 16.2975 13.5433 15.9014 13.5325 15.4693H20.338V14.7544C20.338 14.5928 20.3343 14.435 20.327 14.2809C20.2947 13.6047 20.1915 13.0012 20.0174 12.4705C19.9899 12.3865 19.9606 12.3044 19.9295 12.2241ZM52.3971 19.5359C53.0965 19.1026 53.6319 18.4991 54.0033 17.7254C54.3809 16.9456 54.5697 16.0666 54.5697 15.0887V14.968C54.5697 13.3958 54.1457 12.1362 53.2977 11.1892C52.4559 10.2422 51.3511 9.7687 49.9832 9.7687C49.098 9.7687 48.3089 9.98224 47.6156 10.4093C46.9286 10.8364 46.3901 11.443 46.0001 12.2291C45.6164 13.0151 45.4245 13.9003 45.4245 14.8844V15.0051C45.4245 16.5649 45.8454 17.8183 46.6872 18.7653C47.5352 19.7123 48.64 20.1858 50.0017 20.1858C50.9054 20.1858 51.7039 19.9692 52.3971 19.5359ZM52.0629 12.2105C51.5429 11.5235 50.8497 11.1799 49.9832 11.1799C49.1352 11.1799 48.4512 11.5173 47.9313 12.1919C47.4114 12.8666 47.1514 13.8322 47.1514 15.0887C47.1514 16.2028 47.4083 17.0972 47.922 17.7719C48.4419 18.4465 49.1352 18.7839 50.0017 18.7839C50.8745 18.7839 51.5677 18.4434 52.0814 17.7626C52.5952 17.0755 52.852 16.1161 52.852 14.8844C52.852 13.7827 52.589 12.8914 52.0629 12.2105ZM56.7236 9.95438V20.0001H58.4413V12.8697C58.6586 12.3514 58.9817 11.9731 59.4104 11.7348C59.4238 11.7274 59.4372 11.7201 59.4508 11.7129C59.7229 11.5694 60.0363 11.4806 60.391 11.4465C60.5015 11.4359 60.616 11.4306 60.7345 11.4306C61.018 11.4306 61.2826 11.4495 61.5283 11.4874C61.5454 11.49 61.5624 11.4928 61.5794 11.4956V9.89868C61.4221 9.82003 61.1985 9.77707 60.9086 9.7698C60.8791 9.76907 60.8489 9.7687 60.8181 9.7687C60.3613 9.7687 59.9504 9.85634 59.5854 10.0316C59.2209 10.2067 58.9022 10.4693 58.6294 10.8192C58.5573 10.9117 58.4884 11.0103 58.4227 11.1149L58.3948 9.95438H56.7236ZM62.8142 22.5162L63.2784 22.5533C63.4672 22.5533 63.6423 22.541 63.8037 22.5162C64.1398 22.4647 64.4165 22.3594 64.634 22.2005C64.962 21.9653 65.2313 21.5352 65.4417 20.91L65.8224 19.8887L62.2386 9.95438H64.114L66.6208 17.484L68.9605 9.95438H70.7988L66.7601 21.5506C66.1349 23.2218 65.1415 24.0574 63.7798 24.0574L63.4548 24.0296L62.8142 23.9089V22.5162ZM22.9469 9.95438H21.1179V11.2821H22.9469V17.5119C22.9469 18.3661 23.1419 19.0253 23.5318 19.4895C23.9218 19.9537 24.5005 20.1858 25.268 20.1858C25.6951 20.1858 26.1346 20.1239 26.5864 20.0001V18.6075C26.2398 18.6817 25.9675 18.7189 25.7694 18.7189C25.6318 18.7189 25.5081 18.7073 25.398 18.6842C25.1861 18.6396 25.0252 18.5521 24.9152 18.4218C24.7481 18.2175 24.6645 17.9142 24.6645 17.5119V11.2821H26.54V9.95438H24.6645V7.52187H22.9469V9.95438ZM38.6283 9.95438V11.2821H40.4573V17.5119C40.4573 18.3661 40.6523 19.0253 41.0423 19.4895C41.4322 19.9537 42.0109 20.1858 42.7784 20.1858C43.2055 20.1858 43.645 20.1239 44.0968 20.0001V18.6075C43.7502 18.6817 43.4779 18.7189 43.2798 18.7189C43.1423 18.7189 43.0185 18.7073 42.9084 18.6842C42.6966 18.6396 42.5356 18.5521 42.4256 18.4218C42.2585 18.2175 42.175 17.9142 42.175 17.5119V11.2821H44.0504V9.95438H42.175V7.52187H40.4573V9.95438H38.6283ZM37.4399 8.77595C37.3675 8.62082 37.2839 8.46894 37.1892 8.32033C36.7931 7.68899 36.2298 7.19382 35.4995 6.83482C34.7753 6.47582 33.949 6.29632 33.0205 6.29632C31.6588 6.29632 30.5509 6.64604 29.6967 7.34546C28.8487 8.0387 28.4247 8.91762 28.4247 9.98224C28.4247 10.9231 28.7713 11.7153 29.4646 12.359C30.164 12.9966 31.2781 13.5351 32.807 13.9745C34.0263 14.3273 34.8681 14.6863 35.3323 15.0515C35.7966 15.4105 36.0287 15.9212 36.0287 16.5835C36.0287 17.2457 35.778 17.7688 35.2766 18.1525C34.7753 18.5363 34.0542 18.7282 33.1134 18.7282C32.1045 18.7282 31.2967 18.493 30.6901 18.0225C30.0897 17.5459 29.7895 16.8991 29.7895 16.0821H27.9976C27.9976 16.5021 28.0595 16.8982 28.1832 17.2705C28.291 17.595 28.4458 17.9014 28.6476 18.1897C29.087 18.8086 29.7091 19.2976 30.5137 19.6566C31.3184 20.0094 32.1849 20.1858 33.1134 20.1858C34.5432 20.1858 35.6851 19.8578 36.5393 19.2017C37.3935 18.5394 37.8206 17.6605 37.8206 16.5649C37.8206 15.8778 37.6658 15.2805 37.3563 14.773C37.053 14.2655 36.5826 13.8229 35.9451 13.4453C35.3138 13.0616 34.4348 12.7119 33.3083 12.3962C32.188 12.0805 31.3926 11.7339 30.9222 11.3563C30.458 10.9726 30.2259 10.5053 30.2259 9.95438C30.2259 9.26734 30.4704 8.73194 30.9594 8.34818C31.4545 7.95823 32.1416 7.76326 33.0205 7.76326C33.9675 7.76326 34.701 7.99847 35.2209 8.46888C35.7408 8.9331 36.0008 9.57372 36.0008 10.3908H37.7927C37.7927 10.243 37.7849 10.0976 37.7692 9.95438C37.741 9.69627 37.6873 9.44559 37.6082 9.20235C37.5611 9.05758 37.505 8.91545 37.4399 8.77595ZM14.461 11.9413C14.2206 12.1974 14.0271 12.5069 13.8805 12.8697C13.7401 13.217 13.6427 13.6131 13.5882 14.0581H18.6204V13.9281C18.5981 13.5352 18.5381 13.1823 18.4406 12.8697C18.3214 12.488 18.1461 12.1661 17.9148 11.9041C17.4939 11.4213 16.9244 11.1799 16.2064 11.1799C15.5132 11.1799 14.9314 11.4337 14.461 11.9413ZM7.83189 12.5819C7.32434 13.0275 6.59396 13.2504 5.64076 13.2504H2.43764V7.94895H5.74289C6.62801 7.96752 7.32434 8.2182 7.83189 8.70099C8.33943 9.18378 8.59321 9.8275 8.59321 10.6321C8.59321 11.4801 8.33943 12.13 7.83189 12.5819ZM91.0664 11.4159C90.9035 11.4833 90.7489 11.5687 90.6025 11.672C90.5237 11.7276 90.4481 11.7865 90.3758 11.8487C90.062 12.1184 89.8095 12.4495 89.6183 12.8418V20.0001H87.9007V9.95438H89.5255L89.5812 11.2171C89.7063 11.0597 89.8376 10.9151 89.9752 10.7834C90.1361 10.6294 90.3056 10.4928 90.4836 10.3739C90.5631 10.3208 90.6442 10.2712 90.727 10.2251C91.2737 9.92083 91.8944 9.7687 92.5893 9.7687C94.7124 9.7687 95.7832 10.9664 95.8018 13.3618V20.0001H94.0841V13.3525C94.0779 12.6283 93.9108 12.0929 93.5828 11.7463C93.2609 11.3997 92.7565 11.2263 92.0694 11.2263C91.7061 11.2263 91.3717 11.2896 91.0664 11.4159ZM85.1804 17.7254C85.558 16.9456 85.7467 16.0666 85.7467 15.0887V14.968C85.7467 13.3958 85.3227 12.1362 84.4748 11.1892C83.633 10.2422 82.5281 9.7687 81.1602 9.7687C80.2751 9.7687 79.4859 9.98224 78.7927 10.4093C78.1057 10.8364 77.5672 11.443 77.1772 12.2291C76.7935 13.0151 76.6016 13.9003 76.6016 14.8844V15.0051C76.6016 16.5649 77.0225 17.8183 77.8643 18.7653C78.7122 19.7123 79.8171 20.1858 81.1788 20.1858C82.0825 20.1858 82.8809 19.9692 83.5742 19.5359C84.2736 19.1026 84.809 18.4991 85.1804 17.7254ZM83.2399 12.2105C82.72 11.5235 82.0268 11.1799 81.1602 11.1799C80.3123 11.1799 79.6283 11.5173 79.1084 12.1919C78.5884 12.8666 78.3285 13.8322 78.3285 15.0887C78.3285 16.2028 78.5854 17.0972 79.0991 17.7719C79.619 18.4465 80.3123 18.7839 81.1788 18.7839C82.0515 18.7839 82.7448 18.4434 83.2585 17.7626C83.7722 17.0755 84.0291 16.1161 84.0291 14.8844C84.0291 13.7827 83.7661 12.8914 83.2399 12.2105ZM104.212 7.28914C104.212 7.28893 104.212 7.28934 104.212 7.28914C104.211 7.29259 104.209 7.29741 104.208 7.30229C104.203 7.31367 104.198 7.32585 104.191 7.33774C104.184 7.3496 104.177 7.35863 104.172 7.36466L104.067 7.27362L104.159 7.19109C104.177 7.21114 104.195 7.2396 104.206 7.2702C104.209 7.27788 104.21 7.2843 104.212 7.28914ZM104.053 7.26088L103.941 7.16353C103.96 7.14428 103.982 7.12705 104.004 7.11252C104.016 7.10486 104.027 7.09854 104.037 7.09336C104.047 7.09854 104.058 7.10486 104.07 7.11252C104.097 7.12987 104.122 7.15106 104.144 7.17495C104.144 7.17486 104.144 7.17504 104.144 7.17495L104.053 7.26088ZM104.053 7.28637L103.931 7.39616C103.949 7.41355 103.968 7.42966 103.989 7.44373C104.007 7.45546 104.023 7.4644 104.037 7.47107C104.051 7.4644 104.068 7.45547 104.085 7.44373C104.11 7.42661 104.134 7.40647 104.154 7.38468C104.155 7.38336 104.156 7.38204 104.158 7.38071L104.053 7.28637ZM103.92 7.38468L104.039 7.27362L103.93 7.17495C103.93 7.17504 103.93 7.17486 103.93 7.17495C103.912 7.19351 103.893 7.22286 103.88 7.25709C103.874 7.27182 103.872 7.28302 103.871 7.28941C103.871 7.28953 103.871 7.2893 103.871 7.28941C103.872 7.29483 103.874 7.30394 103.878 7.31529C103.883 7.32839 103.889 7.34166 103.897 7.35408C103.904 7.36643 103.912 7.37532 103.916 7.38071C103.918 7.38204 103.919 7.38337 103.92 7.38468ZM103.276 6.58414C103.109 6.77602 103.025 7.01122 103.025 7.28976C103.025 7.56829 103.109 7.8004 103.276 7.98609C103.449 8.17178 103.703 8.26462 104.037 8.26462C104.371 8.26462 104.625 8.17178 104.798 7.98609C104.972 7.8004 105.058 7.56829 105.058 7.28976C105.058 7.01122 104.972 6.77602 104.798 6.58414C104.625 6.39226 104.371 6.29632 104.037 6.29632C103.703 6.29632 103.449 6.39226 103.276 6.58414ZM110.466 10.2251C111.012 9.92083 111.633 9.7687 112.328 9.7687C114.451 9.7687 115.522 10.9664 115.54 13.3618V20.0001H113.823V13.3525C113.817 12.6283 113.65 12.0929 113.321 11.7463C113 11.3997 112.495 11.2263 111.808 11.2263C111.445 11.2263 111.11 11.2896 110.805 11.4159C110.642 11.4833 110.488 11.5687 110.341 11.672C110.262 11.7276 110.187 11.7865 110.114 11.8487C109.801 12.1184 109.548 12.4495 109.357 12.8418V20.0001H107.639V9.95438H109.264L109.32 11.2171C109.445 11.0597 109.576 10.9151 109.714 10.7834C109.875 10.6294 110.044 10.4928 110.222 10.3739C110.302 10.3208 110.383 10.2712 110.466 10.2251ZM126.218 15.4693V14.7544C126.218 14.5928 126.214 14.435 126.206 14.2809C126.141 12.9068 125.782 11.8329 125.131 11.0592C124.407 10.1989 123.392 9.7687 122.086 9.7687C121.287 9.7687 120.545 9.99152 119.858 10.4372C119.177 10.8766 118.645 11.4894 118.261 12.2755C117.883 13.0554 117.694 13.9436 117.694 14.9401V15.2558C117.694 16.7537 118.122 17.9514 118.976 18.8489C119.83 19.7402 120.938 20.1858 122.299 20.1858C123.529 20.1858 124.535 19.8406 125.315 19.1503C125.412 19.0649 125.505 18.9743 125.595 18.8784C125.772 18.6881 125.937 18.4771 126.088 18.2454L125.038 17.4283C125.032 17.4371 125.025 17.4458 125.018 17.4545C124.707 17.8509 124.345 18.1702 123.934 18.4125C123.513 18.6601 122.999 18.7839 122.392 18.7839C121.538 18.7839 120.833 18.4806 120.275 17.874C119.965 17.5286 119.738 17.1231 119.595 16.6577C119.484 16.2975 119.423 15.9014 119.412 15.4693H126.218ZM123.794 11.9041C123.373 11.4213 122.804 11.1799 122.086 11.1799C121.393 11.1799 120.811 11.4337 120.34 11.9413C120.1 12.1974 119.907 12.5069 119.76 12.8697C119.62 13.217 119.522 13.6131 119.468 14.0581H124.5V13.9281C124.478 13.5352 124.418 13.1823 124.32 12.8697C124.201 12.488 124.026 12.1661 123.794 11.9041ZM100.258 20.0001V5.73926H98.5407V20.0001H100.258ZM104.882 20.0001V9.95438H103.164V20.0001H104.882Z" fill="white"/>
<path fill-rule="evenodd" clip-rule="evenodd" d="M79.6721 15.8418C79.8524 16.2367 79.8524 16.2367 79.6721 15.8418V15.8418V15.8418ZM81.7451 19.4705C82.0313 19.3069 82.3065 18.5773 82.1617 18.282C81.6565 17.2525 81.2852 16.1463 80.9252 15.0337C80.8592 14.8296 80.7632 14.6271 80.5873 14.5255C80.3677 14.3988 80.1703 14.4396 79.9791 14.5283C79.8246 14.6 79.6893 14.7143 79.5552 14.8257C79.1469 15.1648 78.8136 15.3156 79.0344 15.6239C79.1589 15.7976 79.3171 15.9419 79.4265 16.1274C80.0244 17.1413 80.4854 18.1128 80.8448 19.1191C80.981 19.5006 81.3962 19.67 81.7451 19.4705V19.4705V19.4705ZM77.5138 11.1157C77.6942 11.5106 77.6942 11.5106 77.5138 11.1157V11.1157V11.1157ZM76.8497 9.66149V9.66149C76.6826 8.8401 75.8536 7.48019 75.3556 6.38955C75.8536 7.48019 76.2687 8.38907 76.9328 9.84326L76.8497 9.66149V9.66149ZM77.5095 9.9031C77.7411 9.59388 77.9871 9.1077 77.821 8.77411C77.3673 7.86261 76.9985 6.79364 76.6068 5.62892C76.4883 5.27658 76.2684 4.89095 75.919 4.97475C75.8332 4.99533 75.7474 5.03104 75.6616 5.07384C75.5088 5.1501 75.3728 5.26199 75.2386 5.37342C74.8246 5.71736 74.4877 5.86756 74.7276 6.18473C74.8496 6.34604 74.999 6.48324 75.1044 6.65804C75.6777 7.6092 76.1935 8.71296 76.5725 9.79551C76.6827 10.1102 77.0246 10.2492 77.3116 10.0851C77.3179 10.0815 77.324 10.078 77.3301 10.0746C77.3948 10.0375 77.4633 9.9648 77.5095 9.9031V9.9031ZM74.7745 5.11713C74.7193 4.99636 74.6799 4.86795 74.6423 4.73883C74.4001 3.90855 73.6574 2.67106 73.1973 1.66341C73.6953 2.75406 74.1104 3.66293 74.7745 5.11713V5.11713ZM75.3527 5.01712C75.6486 4.85577 75.8537 4.42454 75.7013 4.12467C75.2298 3.19666 74.8513 2.10033 74.4485 0.902788C74.33 0.550446 74.1101 0.164815 73.7607 0.248617C73.6749 0.2692 73.5891 0.30491 73.5034 0.347703C73.3505 0.423966 73.2155 0.537798 73.0764 0.641714C72.6137 0.987471 72.2076 1.0279 72.6293 1.50894C72.7272 1.62071 72.8256 1.73401 72.9041 1.8627C73.5007 2.83992 74.0377 3.98535 74.427 5.10592C74.5297 5.40161 74.8787 5.55982 75.0787 5.30988C75.0877 5.29866 75.0964 5.28722 75.1046 5.27557C75.1728 5.1795 75.2529 5.07151 75.3527 5.01712V5.01712ZM75.7773 10.0454C75.1166 9.96474 74.6208 9.78977 73.9601 9.70908C74.6208 9.78977 75.0336 9.78297 75.7773 10.0454C75.6924 10.0155 75.6094 9.98616 75.5279 9.95749C75.319 9.88401 75.3206 9.88425 75.5294 9.95794V9.95794C74.4548 9.42622 73.5461 9.25804 72.7194 8.8138C73.4631 9.07627 74.2069 9.33873 75.2815 9.87046C74.3718 9.24444 73.3801 8.89449 72.3885 8.54454C73.3801 8.89449 74.4548 9.42622 75.7773 10.0454C76.0252 10.1329 76.0252 10.1329 75.7773 10.0454ZM75.4475 10.234L75.1996 10.1465V10.1465V10.1465C75.0626 10.1488 74.9276 10.1499 74.7945 10.1502C74.3368 10.1513 74.329 10.2032 74.7868 10.1533V10.1533V10.1533C74.4391 10.1912 74.4452 10.3048 74.7929 10.2671C74.8735 10.2584 74.9541 10.2496 75.0347 10.2408C74.2091 10.2544 73.4665 10.4498 72.7239 10.6451C73.0158 10.6134 73.2861 10.574 73.5434 10.5339C73.7018 10.5092 73.7076 10.6039 73.5495 10.6315V10.6315C74.1272 10.5305 74.7049 10.4294 75.2826 10.3283V10.3283C75.4475 10.234 75.4475 10.234 75.4475 10.234ZM75.9456 11.3247C75.6158 11.5132 75.369 11.8836 74.8743 12.1664C75.2041 11.9779 75.4509 11.6075 75.9456 11.3247C75.4509 11.6075 74.8743 12.1664 74.3796 12.4493C74.8743 12.1664 75.286 11.7018 75.7807 11.4189C75.1211 11.7961 74.4615 12.1732 73.8849 12.7322C74.2966 12.2675 74.9562 11.8904 75.6158 11.5132C74.9562 11.8904 74.2966 12.2675 73.637 12.6447C74.2966 12.2675 75.0381 11.6143 75.8626 11.1429C76.0275 11.0486 76.1105 11.2304 75.9456 11.3247ZM76.0286 11.5064V11.5064C75.9198 11.5687 75.8222 11.6529 75.7429 11.7552C75.1446 12.5273 74.6912 13.2165 74.383 13.8228C74.4093 13.771 74.4368 13.7185 74.4651 13.6656C74.6215 13.374 74.698 13.4333 74.5479 13.7285V13.7285C74.8765 13.0821 75.3701 12.3414 75.6988 11.695C75.3701 12.3414 75.2063 12.8935 74.9596 13.2639C75.1132 13.0333 75.2985 12.6959 75.4958 12.318C75.5408 12.2319 75.5629 12.3538 75.5211 12.4416V12.4416C75.482 12.524 75.543 12.4414 75.5706 12.3543C75.6472 12.1131 75.7025 11.8644 75.8365 11.6434C75.8538 11.615 75.8782 11.5924 75.906 11.5765L76.0286 11.5064ZM76.4403 11.0418C76.4501 11.0362 76.4593 11.0309 76.468 11.026C76.6348 10.9306 76.7874 10.9984 76.9566 11.0692V11.0692C77.0227 11.0968 77.122 11.1568 77.1604 11.2205C77.8371 12.3433 78.3451 13.4091 78.7317 14.5212C78.8412 14.8362 79.1828 14.9754 79.4699 14.8112C79.4761 14.8077 79.4823 14.8042 79.4883 14.8007C79.5531 14.7637 79.6216 14.6909 79.6678 14.6292V14.6292C79.8994 14.32 80.1454 13.8338 79.9793 13.5002C79.5256 12.5887 79.1568 11.5198 78.7651 10.3551C78.6466 10.0027 78.4267 9.61708 78.0773 9.70089C77.9376 9.73438 77.798 9.80795 77.6585 9.88691C77.6154 9.91129 77.5764 9.94395 77.5412 9.98052C77.4142 10.1125 77.2884 10.2037 77.1736 10.2756C76.979 10.3975 76.3682 10.4285 76.2732 10.2204V10.2204C76.206 10.0734 76.031 9.98802 75.7474 9.72205C75.5973 9.58123 75.4361 9.45319 75.2518 9.36815C74.4741 9.00915 73.4595 8.63357 72.6415 8.39445C72.3083 8.29702 71.9472 8.42938 72.2236 8.64517V8.64517C72.5921 8.93293 72.6029 9.93216 72.1413 10.0369C72.0883 10.0489 72.0358 10.0616 71.9841 10.075C71.6259 10.1681 71.6271 10.564 71.9862 10.6102C73.1983 10.766 75.1317 10.6413 75.8847 10.4267C75.9247 10.4153 75.9619 10.3962 76.0024 10.3882C76.0137 10.386 76.0261 10.3845 76.0391 10.3845C76.1668 10.3846 76.2587 10.5179 76.3767 10.5644C76.4009 10.5739 76.4246 10.5837 76.4477 10.5938C76.6591 10.6862 76.6281 10.9829 76.3955 10.9889V10.9889C76.2801 10.9918 76.1335 10.988 76.0294 11.0475C75.9682 11.0825 75.8899 11.1273 75.7943 11.1819C75.7301 11.2186 75.6628 11.2477 75.5943 11.2723C74.88 11.5289 74.0818 12.1 73.5089 12.5936C73.3403 12.7388 73.2656 12.9782 73.4757 12.9512V12.9512C73.7952 12.9102 74.3997 13.4839 74.2344 13.7883V13.7883C74.1132 14.0116 74.3046 14.1218 74.486 13.951C75.0762 13.3954 75.7527 12.3049 76.0088 11.6118C76.0944 11.3801 76.2349 11.1592 76.4403 11.0418V11.0418Z" fill="white"/>
</svg>
